<svg width="23" height="21" viewBox="0 0 23 21" fill="none" xmlns="http://www.w3.org/2000/svg"><path d="M21.925 11.479a2.19 2.19 0 00.561-1.465 2.2 2.2 0 00-2.197-2.198h-4.265c.423-1.281.603-2.982.603-3.711v-.732a2.933 2.933 0 00-2.93-2.93h-.732a.732.732 0 00-.71.555l-.4 1.596c-.559 2.236-2.334 4.702-4.17 5.15A2.2 2.2 0 005.64 6.352H1.246a.733.733 0 00-.732.732v13.184c0 .404.328.732.732.732h4.395a2.2 2.2 0 001.983-1.252l2.517.838a8.04 8.04 0 002.547.414h6.136a2.2 2.2 0 002.043-3.007 2.202 2.202 0 001.62-2.12 2.19 2.19 0 00-.562-1.465 2.19 2.19 0 000-2.93zM6.373 18.803a.733.733 0 01-.732.732H1.979V7.816H5.64c.403 0 .732.329.732.733v10.254zm12.451-6.592h1.465a.733.733 0 010 1.465h-1.465a.733.733 0 000 1.465h1.465a.733.733 0 010 1.464h-1.465a.733.733 0 000 1.465.733.733 0 010 1.465h-6.136c-.71 0-1.411-.114-2.085-.338l-2.765-.922V9.212c1.149-.218 2.273-.946 3.288-2.137.992-1.163 1.795-2.705 2.15-4.125l.26-1.042h.161c.808 0 1.465.657 1.465 1.465v.732c0 .983-.308 2.87-.701 3.711h-1.496a.733.733 0 000 1.465h7.324a.733.733 0 010 1.465h-1.465a.733.733 0 000 1.465z" fill="#000"/></svg>