<svg width="159" height="31" viewBox="0 0 159 31" fill="none" xmlns="http://www.w3.org/2000/svg"><path d="M60.411 3.731c.638-2.273 2.916-3.818 5.194-3.727 2.278-.091 4.464 1.545 5.193 3.636.365 1.182.274 2.364 0 3.455l2.46 2c.365.272.638.727.547 1.272V28.55c0 .818 0 1.637-.273 2.364h-15.49l-.273-.455V10.913c.09-.546-.183-1.364.364-1.818l6.378-5.091c.456-.273 1.094-1.182 1.64-.637 1.276 1 2.46 2.091 3.827 3 .183-1.272 0-2.636-.82-3.636-1.275-1.727-3.827-2.182-5.65-1.273-1.093.546-1.821 1.546-2.368 2.546l-.729-.273zm-1.64 6.182v20h14.032V10.822c-.091-.273.091-.818-.182-1l-2.278-1.91a12.16 12.16 0 01-1.823 1.91c-.182.636-.09 1.364-.546 1.91-.82 1.272-2.916 1.454-3.918.363-1.276-.91-1.185-3 0-3.91.546-.545 1.366-.908 2.187-.636.82.182 1.366.728 1.913 1.273.547-.455 1.002-.91 1.367-1.545-1.276-1-2.552-1.91-3.736-3L58.77 9.913zm5.285.182c0 .909.82 1.818 1.73 1.727.912.09 1.55-.727 1.732-1.545-.638.09-1.184.363-1.822.181-.365-.181-.274-.727.09-.818l1.459-.363c-.274-.364-.73-.637-1.185-.819-1.002-.09-2.004.637-2.004 1.637z" fill="#FBCD06"/><path d="M63.418 15.277c.09-.364.638-.364.911-.364 1.184-.091 2.551-.091 3.554.727 1.366.91 1.73 2.818 1.093 4.273-.456.909-1.185 1.636-2.187 1.818-.82.182-1.549.09-2.369.09v.82c1.093 0 2.096-.092 3.19.09.364 0 .546.636.181.818-1.093.182-2.278.091-3.37.091-.092.91.09 1.818-.092 2.727-.091.364-.729.455-.82 0-.182-.818-.091-1.727-.091-2.636-.365-.09-1.276 0-1.185-.636.183-.546.73-.455 1.185-.546v-.636c-.365-.091-1.185 0-1.185-.546.091-.545.73-.545 1.185-.636v-5.455zm1.002.636v4.909c1.002-.091 2.096.273 2.916-.455 1.367-.909 1.276-3.09-.091-4-.82-.636-1.914-.363-2.825-.454z" fill="#FBCD06"/><path d="M9.02 7.095h.82v1.454c1.367.091 2.825.273 4.01.91 2.096 1 3.645 2.817 4.465 5 .455 1.181.546 2.545.364 3.817-.273 2.273-1.549 4.182-3.28 5.546A8.67 8.67 0 019.84 25.64v1.546h-.82V25.64c-.638 0-1.367 0-1.914-.182-2.187-.363-4.1-1.636-5.376-3.363A8.716 8.716 0 010 17.73v-1.09c.091-.91.273-1.728.547-2.546a9.096 9.096 0 013.393-4.057A9.127 9.127 0 019.02 8.55V7.095zm-6.56 5.363a7.627 7.627 0 00-.82 8c1.276 2.728 4.283 4.546 7.38 4.546V9.276c-2.55-.09-5.01 1.182-6.56 3.182zm7.38-3.182v15.728l1.003-.091c3.28-.273 6.287-2.91 6.925-6.182a6.632 6.632 0 000-3.273c-.82-3.545-4.283-6.272-7.927-6.182zm12.12-1.545h.82v17.545l9.293-12.454L35.81 7.73h.911v18.818h-.82V9.004c-2.186 2.727-4.282 5.636-6.378 8.454L22.78 26.55h-.82V7.731zm18.496 0h.82v10.91h12.939V7.73h.82v18.818h-.82v-7.182H41.276v7.182h-.82V7.731zm50.297 7.364c1.731-.273 3.645.181 4.92 1.363 1.458 1.364 2.278 3.455 1.914 5.455-.456 2.545-2.734 4.818-5.467 4.909-3.007.364-5.923-2.091-6.378-5-.638-3.182 1.913-6.455 5.011-6.727zm0 .727c-1.458.182-2.642 1.182-3.462 2.364-1.458 2.181-.82 5.363 1.275 6.909 1.822 1.454 4.647 1.363 6.378-.182 1.64-1.364 2.37-3.727 1.55-5.727-.82-2.273-3.28-3.91-5.741-3.364zm26.789-.636c1.913-.455 3.918.09 5.375 1.454.456.364.183 1.091.274 1.546a6.2 6.2 0 00-3.827-2.364c-1.914-.364-3.827.636-4.92 2.09a5.262 5.262 0 00-.365 5.454c1.002 1.91 3.28 3.183 5.467 2.729 1.458-.182 2.734-1.273 3.645-2.455-.091.546.182 1.091-.274 1.455-1.457 1.727-4.009 2.181-6.104 1.545-2.369-.818-4.192-3.182-4.101-5.727-.091-2.727 2.096-5.273 4.83-5.728zm12.118-.091c2.46-.546 5.194.727 6.378 2.909v-2.728h.82V26.55h-.82v-2.727a5.914 5.914 0 01-4.461 2.935 5.935 5.935 0 01-5.015-1.844 5.812 5.812 0 01-.182-7.818c.82-1 2.005-1.819 3.28-2zm.274.727c-1.276.182-2.461 1.09-3.281 2.182a5.178 5.178 0 00-.216 5.497 5.19 5.19 0 004.863 2.594c2.734-.091 5.012-2.819 4.738-5.546-.091-1.818-1.275-3.545-2.915-4.363-1.003-.546-2.096-.546-3.189-.364zm9.385 10.727l5.558-11.545 3.736 7.636 1.822 3.91h-.911c-1.458-3.274-3.098-6.546-4.738-9.819l-4.738 9.818h-.729zM76.448 15.276h.82v3.819l4.1-3.637c.364-.273.911-.09 1.276-.182l-5.103 4.546 6.47 6.727c-.365-.09-1.003.182-1.276-.273l-5.467-5.545v5.818h-.82V15.276zm24.055 0h.82v6.364h7.654v-6.364h.82V26.55h-.82v-4.182h-7.654v4.182h-.82V15.276zm48.93 0h9.476v.728h-4.283v10.545h-.82V16.004h-4.373v-.728z" fill="#067672"/></svg>