<svg xmlns="http://www.w3.org/2000/svg" xmlns:xlink="http://www.w3.org/1999/xlink"><defs><clipPath id="clip0"><path d="M0 0h100v100H0z"/></clipPath><clipPath id="clip0"><path fill="#fff" d="M0 0h100v100H0z"/></clipPath><clipPath id="clip0"><path fill="#fff" d="M0 0h100v100H0z"/></clipPath><clipPath id="clip0"><path fill="#fff" d="M0 0h100v100H0z"/></clipPath></defs><symbol id="icon-badge" viewBox="0 0 100 100"><g clip-path="url(#clip0)"><path d="M62.765 12.46a28.415 28.415 0 00-32.97 5.288c-10.137 10.136-11.151 26.297-2.36 37.593a1.573 1.573 0 002.211.276c.687-.535.81-1.525.276-2.212-7.816-10.043-6.913-24.414 2.101-33.428a25.269 25.269 0 0129.32-4.704 1.576 1.576 0 101.422-2.813zM75.35 25.047a1.576 1.576 0 00-2.815 1.42 25.27 25.27 0 01-4.706 29.316c-9.014 9.014-23.385 9.917-33.428 2.101a1.576 1.576 0 00-1.936 2.488A28.32 28.32 0 0049.9 66.346c7.334 0 14.64-2.815 20.158-8.334a28.417 28.417 0 005.291-32.965zm-4.073-6.002a28.875 28.875 0 00-2.515-2.516 1.576 1.576 0 10-2.088 2.361 25.869 25.869 0 012.242 2.242 1.572 1.572 0 002.224.137 1.575 1.575 0 00.137-2.224z"/><path d="M87.123 40.705a5.348 5.348 0 000-5.589l-2.074-3.4a2.218 2.218 0 01-.297-1.498l.618-3.926a5.346 5.346 0 00-2.145-5.176l-3.213-2.337a2.219 2.219 0 01-.85-1.27l-.936-3.867a5.346 5.346 0 00-3.955-3.955l-3.867-.936a2.218 2.218 0 01-1.27-.85l-2.338-3.215a5.345 5.345 0 00-5.175-2.145l-3.928.618a2.219 2.219 0 01-1.498-.297l-3.4-2.074a5.347 5.347 0 00-5.59 0l-3.4 2.074a2.218 2.218 0 01-1.497.297L38.38 2.54c-2-.315-3.984.507-5.175 2.145l-2.337 3.213a2.22 2.22 0 01-1.271.85l-3.867.936a5.347 5.347 0 00-3.955 3.954l-.936 3.868a2.22 2.22 0 01-.85 1.27l-3.214 2.338a5.345 5.345 0 00-2.146 5.175l.618 3.928a2.219 2.219 0 01-.297 1.498l-2.073 3.4a5.348 5.348 0 000 5.59l2.073 3.4c.273.447.379.98.297 1.497l-.618 3.927a5.345 5.345 0 002.145 5.175l3.213 2.337c.425.31.727.76.85 1.271l.936 3.867a5.346 5.346 0 003.955 3.955l1.615.39-10.929 24.378a1.576 1.576 0 001.625 2.21l8.794-1.052 5.065 7.264a1.576 1.576 0 002.73-.256L45.792 74.17l1.414.862A5.36 5.36 0 0050 75.82c.966 0 1.932-.263 2.794-.788l1.466-.894 11.175 24.93a1.576 1.576 0 002.73.257l5.066-7.264 8.794 1.051a1.576 1.576 0 001.624-2.21l-10.934-24.39 1.554-.377a5.347 5.347 0 003.955-3.954l.936-3.867a2.22 2.22 0 01.85-1.27l3.215-2.338a5.345 5.345 0 002.145-5.175l-.618-3.928a2.219 2.219 0 01.297-1.498l2.073-3.4zM32.893 95.24l-4.015-5.757a1.575 1.575 0 00-1.48-.663l-6.968.833 9.957-22.211c.181.133.345.294.48.48l2.337 3.213c.222.305.472.582.744.828l-5.241 11.691a1.576 1.576 0 002.876 1.29l5.222-11.65c.514.07 1.043.07 1.574-.014l3.928-.618c.235-.037.472-.034.704.005L32.892 95.24zm46.742-5.587l-6.968-.833a1.575 1.575 0 00-1.48.663l-4.014 5.757L57.05 72.658a2.2 2.2 0 01.643.005l3.926.618a5.394 5.394 0 001.637.004l5.226 11.659a1.576 1.576 0 102.876-1.29L66.097 71.92a5.34 5.34 0 00.697-.784l2.338-3.213a2.2 2.2 0 01.53-.516l9.973 22.247zm4.796-50.589l-2.073 3.4a5.375 5.375 0 00-.72 3.63l.618 3.927c.13.826-.21 1.645-.885 2.136l-3.215 2.338a5.374 5.374 0 00-2.06 3.078l-.935 3.867a2.208 2.208 0 01-1.633 1.633l-3.867.936a5.373 5.373 0 00-3.078 2.06l-2.337 3.213a2.206 2.206 0 01-2.137.885l-3.927-.618a5.375 5.375 0 00-3.629.72l-3.4 2.073a2.208 2.208 0 01-2.306 0l-3.401-2.074a5.373 5.373 0 00-3.629-.72l-3.928.619a2.207 2.207 0 01-2.136-.886l-2.338-3.214a5.373 5.373 0 00-3.078-2.06l-3.867-.935a2.207 2.207 0 01-1.633-1.633l-.936-3.867a5.373 5.373 0 00-2.06-3.079l-3.212-2.337a2.207 2.207 0 01-.886-2.136l.619-3.927a5.374 5.374 0 00-.72-3.629l-2.073-3.4a2.208 2.208 0 010-2.307l2.073-3.4a5.374 5.374 0 00.72-3.63l-.618-3.927c-.13-.826.21-1.645.885-2.136l3.214-2.338a5.374 5.374 0 002.06-3.078l.936-3.867a2.208 2.208 0 011.633-1.633l3.867-.936a5.373 5.373 0 003.078-2.06l2.337-3.213a2.206 2.206 0 012.137-.885l3.926.618a5.372 5.372 0 003.63-.72l3.4-2.073a2.208 2.208 0 012.306 0l3.4 2.074a5.372 5.372 0 003.63.72l3.928-.619c.825-.13 1.644.21 2.136.886l2.338 3.214a5.373 5.373 0 003.078 2.06l3.867.935c.81.197 1.436.822 1.632 1.633l.936 3.867a5.373 5.373 0 002.06 3.079l3.213 2.337a2.207 2.207 0 01.886 2.136l-.619 3.927a5.374 5.374 0 00.72 3.629l2.073 3.4a2.207 2.207 0 010 2.307z"/><path d="M68.44 33.007a2.82 2.82 0 00-2.372-1.948l-9.483-1.124-4-8.671A2.82 2.82 0 0050 19.609a2.82 2.82 0 00-2.586 1.655l-4 8.671-9.482 1.124a2.82 2.82 0 00-2.373 1.948 2.82 2.82 0 00.774 2.97l7.011 6.484-1.86 9.366a2.82 2.82 0 001.119 2.859 2.838 2.838 0 001.67.549 2.85 2.85 0 001.394-.368L50 50.203l8.332 4.664a2.82 2.82 0 003.065-.181 2.82 2.82 0 001.12-2.859l-1.862-9.366 7.01-6.483a2.82 2.82 0 00.776-2.97zm-10.572 7.74a1.576 1.576 0 00-.476 1.463l1.904 9.584-8.527-4.772a1.575 1.575 0 00-1.54 0l-8.526 4.772 1.904-9.584a1.575 1.575 0 00-.475-1.464l-7.175-6.635 9.705-1.15a1.577 1.577 0 001.245-.905L50 23.183l4.093 8.873c.23.498.7.84 1.245.905l9.704 1.15-7.174 6.635z"/></g></symbol><symbol id="icon-calendar" viewBox="0 0 75 75"><path d="M72.65 71.365l-5.86-57.421a1.172 1.172 0 00-1.165-1.053h-2.344v-1.172a9.373 9.373 0 00-17.578-4.532 9.37 9.37 0 00-16.406 0 9.372 9.372 0 00-17.578 4.532v1.172H9.375a1.172 1.172 0 00-1.166 1.053L2.35 71.365a1.172 1.172 0 001.167 1.291h67.969a1.172 1.172 0 001.165-1.29zm-2.629-2.678l-5.977-5.124a1.17 1.17 0 00-.763-.282h-6.188l4.903-48.047h2.57l5.455 53.452zm-13.167-3.062h3.26l-3.572 3.061.312-3.061zm6.427.372l5.036 4.316h-10.07l5.034-4.316zm-9.375-61.31a7.039 7.039 0 017.032 7.032v1.172h-2.344v-1.172a4.687 4.687 0 10-9.375 0v4.687a4.696 4.696 0 003.515 4.54v2.394a7.043 7.043 0 01-5.859-6.934V11.72a7.039 7.039 0 017.031-7.031zm-2.343 8.204v-1.172a2.344 2.344 0 114.687 0v1.172h-4.687zM37.5 4.688a7.04 7.04 0 017.031 7.03v1.173h-2.343v-1.172a4.688 4.688 0 00-9.375 0v4.687a4.695 4.695 0 003.515 4.54v2.394a7.043 7.043 0 01-5.86-6.934V11.72A7.04 7.04 0 0137.5 4.688zm-2.344 8.203v-1.172a2.344 2.344 0 014.688 0v1.172h-4.688zm-21.093-1.172a7.031 7.031 0 1114.062 0v1.172h-2.344v-1.172a4.687 4.687 0 10-9.375 0v4.687a4.696 4.696 0 003.516 4.54v2.394a7.043 7.043 0 01-5.86-6.934V11.72zm4.687 1.172v-1.172a2.344 2.344 0 114.688 0v1.172H18.75zM4.813 70.313l5.62-55.079h1.286v1.172a9.386 9.386 0 009.375 9.375 1.174 1.174 0 001.172-1.172v-4.687a1.172 1.172 0 00-1.172-1.172 2.347 2.347 0 01-2.344-2.344v-1.172h9.375v1.172a9.385 9.385 0 009.375 9.375 1.173 1.173 0 001.172-1.172v-4.687A1.172 1.172 0 0037.5 18.75a2.347 2.347 0 01-2.344-2.344v-1.172h9.375v1.172a9.386 9.386 0 009.375 9.375 1.174 1.174 0 001.172-1.172v-4.687a1.172 1.172 0 00-1.172-1.172 2.347 2.347 0 01-2.343-2.344v-1.172h8.077l-5.62 55.078H4.813z"/><path d="M37.5 28.125h-9.375a1.172 1.172 0 00-1.172 1.172v9.375a1.171 1.171 0 001.172 1.172H37.5a1.172 1.172 0 001.172-1.172v-9.375a1.172 1.172 0 00-1.172-1.172zM36.328 37.5h-7.031v-7.031h7.031V37.5zm15.235-9.375h-9.376a1.172 1.172 0 00-1.171 1.172v9.375a1.171 1.171 0 001.172 1.172h9.374a1.172 1.172 0 001.172-1.172v-9.375a1.172 1.172 0 00-1.172-1.172zM50.39 37.5h-7.032v-7.031h7.032V37.5zm-29.296 4.688h-9.375a1.172 1.172 0 00-1.172 1.171v9.375a1.171 1.171 0 001.172 1.172h9.375a1.172 1.172 0 001.172-1.172V43.36a1.172 1.172 0 00-1.172-1.172zm-1.172 9.374H12.89v-7.03h7.03v7.03zm15.234-9.374h-9.375a1.172 1.172 0 00-1.172 1.171v9.375a1.171 1.171 0 001.172 1.172h9.375a1.172 1.172 0 001.172-1.172V43.36a1.172 1.172 0 00-1.172-1.172zm-1.172 9.374h-7.03v-7.03h7.03v7.03zM19.922 56.25h-9.375a1.172 1.172 0 00-1.172 1.172v9.375a1.171 1.171 0 001.172 1.172h9.375a1.173 1.173 0 001.172-1.172v-9.375a1.174 1.174 0 00-1.172-1.172zm-1.172 9.375h-7.031v-7.031h7.031v7.031zm15.234-9.375H24.61a1.172 1.172 0 00-1.172 1.172v9.375a1.171 1.171 0 001.172 1.172h9.375a1.173 1.173 0 001.172-1.172v-9.375a1.172 1.172 0 00-1.172-1.172zm-1.172 9.375h-7.03v-7.031h7.03v7.031zM48.39 42.53l-3.859 3.86-3.858-3.86-1.658 1.658 3.86 3.859-3.86 3.859 1.657 1.657 3.86-3.859 3.858 3.86 1.657-1.658-3.858-3.86 3.858-3.858-1.657-1.657z"/></symbol><symbol id="icon-call" viewBox="0 0 24 24"><path d="M5.275 10.488c1.8 3.537 4.7 6.425 8.237 8.237l2.75-2.75c.338-.338.838-.45 1.276-.3 1.4.462 2.912.712 4.462.712.688 0 1.25.563 1.25 1.25V22c0 .688-.563 1.25-1.25 1.25C10.262 23.25.75 13.738.75 2 .75 1.312 1.313.75 2 .75h4.375c.688 0 1.25.563 1.25 1.25 0 1.563.25 3.063.713 4.463.137.437.037.925-.313 1.274l-2.75 2.75z"/></symbol><symbol id="icon-certificate" viewBox="0 0 75 75"><path d="M71.484 11.719H3.516a1.172 1.172 0 00-1.172 1.172v49.218a1.171 1.171 0 001.172 1.172H28.57l.75 3.746a1.172 1.172 0 002.124.42l2.777-4.166h6.558l2.777 4.166a1.173 1.173 0 002.124-.42l.75-3.746h25.054a1.171 1.171 0 001.172-1.172V12.891a1.171 1.171 0 00-1.172-1.172zm-40.42 52.074l-.618-3.085a1.171 1.171 0 00-1.379-.92l-3.085.617 4.275-6.413a9.386 9.386 0 005.204 3.204l-4.398 6.597zm6.436-8.715a7.03 7.03 0 117.031-7.031 7.04 7.04 0 01-7.031 7.031zm-1.717 5.86l1.717-2.575 1.717 2.575h-3.434zm8.771-.23l-.617 3.085-4.398-6.597a9.386 9.386 0 005.204-3.204l4.275 6.413-3.085-.617a1.172 1.172 0 00-1.379.92zm25.758.23H52.19l-3.125-4.688h15.388a1.172 1.172 0 001.172-1.172V19.922a1.172 1.172 0 00-1.172-1.172h-7.031v2.344h5.86v32.812h-15.78l-1.41-2.114c.2-.454.362-.922.486-1.401h8.5v-2.344h-8.203a9.375 9.375 0 10-18.75 0h-8.203v2.344h8.5c.124.479.287.947.486 1.4l-1.41 2.115h-15.78V21.094h5.86V18.75h-7.031a1.172 1.172 0 00-1.172 1.172v35.156a1.172 1.172 0 001.172 1.172h15.388l-3.125 4.688H4.688V14.062h65.624v46.876z"/><path d="M45.703 32.813h7.031v2.343h-7.03v-2.343zm-14.063 0h11.72v2.343H31.64v-2.343zm-9.374 0h7.03v2.343h-7.03v-2.343zm2.344-5.86a1.172 1.172 0 001.633 1.077l4.972-2.13a15.956 15.956 0 0112.57 0l4.972 2.13a1.171 1.171 0 001.634-1.077v-5.86h4.687V18.75h-7.927l-.247-.124a21.03 21.03 0 00-18.808 0l-.247.124h-7.927v2.344h4.687v5.86zM37.5 18.75c2.9.003 5.76.679 8.356 1.973l2.19 1.095v3.358l-3.337-1.43a18.299 18.299 0 00-14.418 0l-3.338 1.43v-3.358l2.191-1.095A18.78 18.78 0 0137.5 18.75z"/><path d="M33.984 28.125h7.032v2.344h-7.032v-2.344zm4.102 18.75h-1.172a1.172 1.172 0 000 2.344h1.172a1.172 1.172 0 000-2.344zm19.336 1.172h2.344v2.344h-2.344v-2.344zm-42.188 0h2.344v2.344h-2.344v-2.344z"/></symbol><symbol id="icon-chairman" viewBox="0 0 75 75"><path d="M12.89 49.092v22.392a1.171 1.171 0 001.172 1.172h46.876a1.172 1.172 0 001.171-1.172V49.092a10.55 10.55 0 00-4.539-8.669l-10.8-7.485a11.657 11.657 0 002.449-7.157V9.375a4.693 4.693 0 00-4.688-4.688h-.63a4.689 4.689 0 00-4.057-2.343h-4.688a9.386 9.386 0 00-9.375 9.375V25.78c-.002 2.592.86 5.11 2.45 7.157L17.43 40.423a10.55 10.55 0 00-4.54 8.669zm10.547-9.98l1.841-1.276 2.516 4.528-4.357.77v-4.023zm9.375-2.593v.981c0 .096.012.191.035.284l1.12 4.476-.653 5.215-6.1-10.981 2.649-1.836a11.74 11.74 0 002.95 1.86zm12.325-1.86l2.649 1.835-6.1 10.98-.652-5.214 1.119-4.476a1.17 1.17 0 00.035-.284v-.981a11.74 11.74 0 002.95-1.86zm-8.946 8.7h2.618l.949 7.586L37.5 55.01l-2.258-4.064.949-7.586zm2.48 14.366l3.505-6.308h.002v-.003l3.488-6.277 4.29 4.156-11.284 13.164v-4.732zm11.05-19.89l1.842 1.276v4.023l-4.357-.77 2.516-4.528zm-9.877-.48l-.915 3.66H36.07l-.915-3.66v-.09c1.547.314 3.141.314 4.688 0v.09zm-7.022 14.06v.002h.002l3.504 6.308v4.732L25.045 49.293l4.29-4.156 3.487 6.277zm26.944-2.323v21.22H38.672V66.06l13.78-16.078a1.172 1.172 0 00-.074-1.604l-3.432-3.326 3.584.634a1.172 1.172 0 001.376-1.154v-3.795l2.33 1.614a8.205 8.205 0 013.53 6.742zM46.875 9.375v1.858l-.687-.686a3.98 3.98 0 00-1.657-.998V7.03a2.346 2.346 0 012.344 2.344zM35.156 4.687h4.688a2.346 2.346 0 012.343 2.344V9.55a3.98 3.98 0 00-1.657.998 7.95 7.95 0 01-5.658 2.344h-6.747V11.72a7.04 7.04 0 017.031-7.031zm-7.031 10.547h6.747a10.277 10.277 0 007.316-3.03 1.657 1.657 0 012.343 0l2.344 2.344V25.78a9.375 9.375 0 11-18.75 0V15.234zm-9.36 27.115l2.329-1.613v3.795a1.173 1.173 0 001.376 1.154l3.584-.634-3.432 3.326a1.172 1.172 0 00-.074 1.604l13.78 16.078v4.254H15.234V49.091a8.205 8.205 0 013.53-6.742z"/><path d="M35.156 17.578H30.47v2.344h4.687v-2.344zm0 12.891h1.172a3.52 3.52 0 003.516-3.516V24.61H37.5v2.344a1.173 1.173 0 01-1.172 1.172h-1.172v2.344zm-2.343-7.031a1.172 1.172 0 100-2.344 1.172 1.172 0 000 2.343zm11.718-5.86h-4.687v2.344h4.687v-2.344zm-2.343 5.86a1.172 1.172 0 100-2.344 1.172 1.172 0 000 2.343z"/></symbol><symbol id="icon-close" viewBox="0 0 40 40"><path d="M26.773 13.86a.313.313 0 00-.312-.313l-2.578.012L20 18.188l-3.879-4.625-2.582-.012a.31.31 0 00-.312.312.32.32 0 00.074.203l5.082 6.055-5.082 6.05a.313.313 0 00.238.516l2.582-.011L20 22.046l3.879 4.626 2.578.012a.31.31 0 00.313-.313.325.325 0 00-.075-.203l-5.074-6.05 5.082-6.055a.313.313 0 00.07-.204z"/><path d="M20 2.54c-9.664 0-17.5 7.835-17.5 17.5 0 9.663 7.836 17.5 17.5 17.5s17.5-7.837 17.5-17.5c0-9.665-7.836-17.5-17.5-17.5zm0 32.03c-8.023 0-14.531-6.508-14.531-14.53 0-8.024 6.508-14.532 14.531-14.532s14.531 6.508 14.531 14.531S28.023 34.57 20 34.57z"/></symbol><symbol id="icon-crane" viewBox="0 0 100 100"><g clip-path="url(#clip0)"><path d="M98.333 31.666H86.666c-.92 0-1.666.747-1.666 1.667v5H70v-1.667c0-.92-.746-1.666-1.667-1.666h-6.666v-8.334c0-.92-.747-1.666-1.667-1.666h-5V15h4.833l9.968 2a7.132 7.132 0 100-13.987L59.834 5H55V1.667C55 .747 54.254 0 53.333 0h-6.666C45.747 0 45 .746 45 1.667V5h-4.833l-9.97-2a7.133 7.133 0 100 13.986L40.167 15H45v10h-5c-.92 0-1.667.746-1.667 1.666V35h-6.666c-.92 0-1.667.746-1.667 1.666V40h-8.333C9.707 40.013.014 49.706 0 61.666v10c0 .92.747 1.667 1.667 1.667h16.667c.92 0 1.666-.747 1.666-1.667v-10c0-.92.747-1.667 1.667-1.667H30v3.334c0 .92.746 1.666 1.667 1.666h36.666c.92 0 1.667-.746 1.667-1.666v-1.667h15v5c0 .92.746 1.667 1.666 1.667h11.667c.92 0 1.666-.747 1.666-1.667V33.333c0-.92-.746-1.667-1.666-1.667zM55 8.333h5c.112.001.224-.01.333-.033l10.13-2.025a3.798 3.798 0 110 7.45L60.333 11.7a1.55 1.55 0 00-.333-.034h-5V8.333zM30 56.666h-8.333a5 5 0 00-5 5v8.333H3.334v-8.333c.012-10.12 8.213-18.321 18.333-18.333H30v13.333zM48.333 3.333h3.334V5h-3.334V3.333zm0 5h3.334v3.333h-3.334V8.333zm0 6.667h3.334v10h-3.334V15zM40 11.666a1.55 1.55 0 00-.333.034l-10.13 2.025a3.798 3.798 0 110-7.45L39.667 8.3c.11.023.221.034.333.033h5v3.333h-5zm1.667 16.667h16.666V35H41.667v-6.667zm25 33.333H33.332V38.333h33.333v23.333zM85 58.333H70V41.666h15v16.667zm11.666 6.666h-8.333V35h8.333v30zM17.424 88.597l-5.955-11.054a1.737 1.737 0 00-2.937 0L2.577 88.597A7.435 7.435 0 002.744 96a8.333 8.333 0 007.257 4 8.333 8.333 0 007.256-4 7.435 7.435 0 00.167-7.401zm-3.027 5.692a5.029 5.029 0 01-4.396 2.377 5.029 5.029 0 01-4.397-2.377 4.079 4.079 0 01-.09-4.112L10 81.844l4.486 8.333a4.079 4.079 0 01-.09 4.112z"/></g></symbol><symbol id="icon-cup" viewBox="0 0 100 66"><path d="M98.047 6.332H82.03V2.198A1.953 1.953 0 0080.078.245H37.891a1.953 1.953 0 000 3.906h40.234v14.974c0 13.154-7.023 25.38-18.363 32.031H22.27C10.93 44.504 3.906 32.28 3.906 19.125V4.151h13.086a1.953 1.953 0 000-3.906H1.953A1.953 1.953 0 000 2.198v16.927a40.965 40.965 0 005.739 20.934 41.236 41.236 0 009.664 11.097H1.953A1.953 1.953 0 000 53.11C0 60.217 5.783 66 12.89 66h60.938c7.108 0 12.89-5.783 12.89-12.89a1.953 1.953 0 00-1.952-1.954H66.628a41.254 41.254 0 009.044-10.09h5.513C91.56 41.065 100 32.624 100 22.25V8.285a1.953 1.953 0 00-1.953-1.953zm-15.448 48.73c-.895 4.019-4.487 7.032-8.77 7.032H12.89c-4.284 0-7.877-3.014-8.77-7.032h78.478zm-.568-35.937v-1.074h6.25v4.199a7.104 7.104 0 01-7.096 7.096h-.444a41.117 41.117 0 001.29-10.221zm14.063 3.125c0 8.22-6.688 14.909-14.909 14.909h-3.324a40.756 40.756 0 001.667-3.906h1.657c6.067 0 11.002-4.936 11.002-11.003v-6.152a1.953 1.953 0 00-1.953-1.953h-8.203v-3.907h14.063V22.25z"/></symbol><symbol id="icon-diploma" viewBox="0 0 100 100"><g clip-path="url(#clip0)"><path d="M94.576 4.492H5.424A5.43 5.43 0 000 9.916v19.638a1.48 1.48 0 002.959 0V9.916A2.468 2.468 0 015.424 7.45h89.152a2.468 2.468 0 012.465 2.465v59.172a2.468 2.468 0 01-2.465 2.465H63.95a14.155 14.155 0 000-4.142h19.186a1.48 1.48 0 001.48-1.48 6.812 6.812 0 016.804-6.804 1.48 1.48 0 001.48-1.48V32.485a1.48 1.48 0 10-2.96 0V56.28a9.786 9.786 0 00-8.171 8.171H63.172C61.142 59.154 56.004 55.38 50 55.38c-6.004 0-11.142 3.774-13.172 9.072H18.23a9.786 9.786 0 00-8.172-8.171V22.723a9.786 9.786 0 008.172-8.171h63.54a9.787 9.787 0 008.172 8.171v2.861a1.48 1.48 0 002.958 0v-4.228a1.48 1.48 0 00-1.479-1.48 6.812 6.812 0 01-6.805-6.804 1.48 1.48 0 00-1.479-1.48H16.864a1.48 1.48 0 00-1.48 1.48 6.812 6.812 0 01-6.804 6.805 1.48 1.48 0 00-1.48 1.48v36.29c0 .818.663 1.48 1.48 1.48a6.812 6.812 0 016.805 6.805c0 .817.662 1.479 1.479 1.479H36.05a14.174 14.174 0 000 4.143H5.424a2.468 2.468 0 01-2.465-2.466V36.433a1.48 1.48 0 10-2.959 0v32.655a5.43 5.43 0 005.424 5.424h31.404a14.094 14.094 0 002.028 3.598v15.83a1.479 1.479 0 002.038 1.37L50 91.591l9.106 3.717a1.482 1.482 0 001.384-.141 1.48 1.48 0 00.654-1.228v-4.231a1.48 1.48 0 00-2.958 0v2.03l-7.627-3.114a1.485 1.485 0 00-1.118 0l-7.627 3.113V80.956A14.024 14.024 0 0050 83.585c3.05 0 5.875-.977 8.186-2.63v1.84a1.48 1.48 0 102.958 0V78.11a14.094 14.094 0 002.028-3.598h31.404A5.43 5.43 0 00100 69.088V9.916a5.43 5.43 0 00-5.424-5.424zM50 80.626c-6.145 0-11.144-4.999-11.144-11.144 0-6.144 5-11.144 11.144-11.144 6.145 0 11.144 5 11.144 11.144 0 6.145-5 11.144-11.144 11.144z"/><path d="M63.018 24.019a1.48 1.48 0 100-2.959H36.982a1.48 1.48 0 100 2.959h26.036zm9.862 4.931H27.12a1.48 1.48 0 100 2.958h45.76a1.48 1.48 0 100-2.958zm0 7.89H27.12a1.48 1.48 0 100 2.958h45.76a1.48 1.48 0 100-2.959zm0 9.072h-7.1a1.48 1.48 0 100 2.959h7.1a1.48 1.48 0 100-2.959zm-45.76 0a1.48 1.48 0 100 2.959h7.1a1.48 1.48 0 100-2.959h-7.1zM50 61.691c-4.296 0-7.791 3.495-7.791 7.791s3.495 7.792 7.791 7.792 7.791-3.496 7.791-7.792c0-4.296-3.495-7.79-7.791-7.79zm0 12.624a4.838 4.838 0 01-4.833-4.833A4.838 4.838 0 0150 64.65a4.838 4.838 0 014.833 4.832A4.838 4.838 0 0150 74.315zm-5.03-26.923A5.035 5.035 0 0050 52.42a5.035 5.035 0 005.03-5.03A5.035 5.035 0 0050 42.362a5.035 5.035 0 00-5.03 5.03zm7.101 0c0 1.142-.929 2.07-2.071 2.07a2.074 2.074 0 01-2.071-2.07c0-1.143.929-2.072 2.071-2.072 1.142 0 2.071.93 2.071 2.072z"/></g></symbol><symbol id="icon-ecertificate" viewBox="0 0 75 75"><path d="M70.313 2.344H4.686a2.346 2.346 0 00-2.343 2.344v50.39a5.866 5.866 0 005.86 5.86h20.1l.782 4.687H25.78a2.346 2.346 0 00-2.343 2.344v2.344a2.346 2.346 0 002.343 2.343h23.44a2.346 2.346 0 002.343-2.344V67.97a2.346 2.346 0 00-2.343-2.344h-3.305l.782-4.688h20.1a5.866 5.866 0 005.86-5.859V4.688a2.346 2.346 0 00-2.344-2.344zm0 2.344v44.53h-2.344V8.204a1.172 1.172 0 00-1.172-1.172H8.203a1.172 1.172 0 00-1.172 1.172V49.22H4.688V4.687h65.624zm-4.688 44.53H9.375V9.376h56.25V49.22zM49.221 70.313H25.78V67.97h23.44l.002 2.344zm-5.682-4.687H31.46l-.78-4.688h13.638l-.78 4.688zm23.258-7.031H8.203a3.52 3.52 0 01-3.515-3.516v-3.516h65.624v3.516a3.52 3.52 0 01-3.515 3.516z"/><path d="M64.453 63.281H62.11a5.867 5.867 0 00-5.859 5.86v2.343a1.172 1.172 0 001.172 1.172H69.14a1.17 1.17 0 001.171-1.172v-2.343a5.866 5.866 0 00-5.859-5.86zm3.516 7.032h-9.375V69.14a3.52 3.52 0 013.515-3.516h2.344a3.52 3.52 0 013.516 3.516v1.171zM15.234 31.64v3.516a1.171 1.171 0 001.696 1.049l1.82-.91 1.82.91a1.172 1.172 0 001.696-1.049v-3.515h5.859a2.346 2.346 0 002.344-2.344V15.234a2.347 2.347 0 00-2.344-2.343h-12.89a2.346 2.346 0 00-2.344 2.343v14.063a2.346 2.346 0 002.343 2.344zm4.688 1.62l-.648-.324a1.173 1.173 0 00-1.048 0l-.648.324v-1.62h2.344v1.62zm-4.688-18.026h12.891l.002 14.063H15.234V15.234zm18.75-1.171h10.547v2.343H33.984v-2.343zm12.891 0h4.688v2.343h-4.688v-2.343zM33.984 18.75h5.86v2.344h-5.86V18.75zm8.204 0h4.687v2.344h-4.688V18.75zm-8.204 9.375h11.72v2.344h-11.72v-2.344zm0 4.688H37.5v2.343h-3.516v-2.343zm5.86 0h2.343v2.343h-2.343v-2.343zm-5.86 4.687h2.344v2.344h-2.344V37.5zm4.688 0h7.031v2.344h-7.031V37.5zm-4.688 4.688h5.86v2.343h-5.86v-2.343zm8.204 0h3.515v2.343h-3.516v-2.343zm8.202-14.063h11.72v2.344H50.39v-2.344zm0 4.688h3.516v2.343h-3.515v-2.343zm5.86 0h2.344v2.343H56.25v-2.343zM50.39 37.5h2.344v2.344h-2.343V37.5zm4.688 0h7.031v2.344h-7.03V37.5zm-4.688 4.688h2.344v2.343h-2.343v-2.343zm4.688 0h7.031v2.343h-7.03v-2.343zm-41.015 4.687h15.234a1.172 1.172 0 001.172-1.172v-4.687a1.172 1.172 0 00-1.172-1.172H14.062a1.17 1.17 0 00-1.171 1.172v4.687a1.174 1.174 0 001.171 1.172zm14.062-2.344h-2.344v-2.343h2.344v2.343zm-12.89-2.343h8.203v2.343h-8.204v-2.343z"/><path d="M19.922 18.75h3.515v2.344h-3.515V18.75zm-2.344 4.688h8.203v2.343h-8.203v-2.343zM37.5 56.25a1.172 1.172 0 100-2.344 1.172 1.172 0 000 2.344z"/></symbol><symbol id="icon-gestures" viewBox="0 0 100 100"><path d="M92.188 35.938a6.256 6.256 0 00-6.25 6.25v12.796c-1.836-.534-3.943-.128-5.335 1.266l-6.63 6.63c-2.36 2.36-3.66 5.5-3.66 8.837v11.096H68.75c-.862 0-1.563.698-1.563 1.562v12.5c0 .864.7 1.563 1.563 1.563h21.875c.862 0 1.563-.699 1.563-1.563v-12.5c0-.864-.7-1.563-1.563-1.563h-1.563v-2.478l5.257-5.256a13.964 13.964 0 004.118-9.942V42.188a6.256 6.256 0 00-6.25-6.25zm-3.126 59.374h-18.75v-9.374h18.75v9.374zm6.25-30.176c0 2.922-1.137 5.667-3.203 7.733l-5.714 5.714a1.558 1.558 0 00-.457 1.105v3.124h-12.5V71.718a9.31 9.31 0 012.745-6.628l6.63-6.63c.832-.836 2.289-.836 3.124 0l.915.916c.418.419.648.972.648 1.563 0 .59-.23 1.143-.647 1.562l-5.145 5.145 2.21 2.21 5.144-5.146a5.304 5.304 0 001.563-3.772 5.301 5.301 0 00-1.563-3.771V42.188a3.128 3.128 0 013.126-3.126 3.128 3.128 0 013.124 3.126v22.948zM10.938 80.334v2.478H9.374c-.863 0-1.563.699-1.563 1.563v12.5c0 .864.7 1.563 1.563 1.563H31.25c.862 0 1.563-.699 1.563-1.563v-12.5c0-.864-.7-1.563-1.563-1.563h-1.563V71.718c0-3.339-1.3-6.478-3.66-8.837l-6.629-6.63c-1.393-1.394-3.498-1.798-5.335-1.266V42.187a6.256 6.256 0 00-6.25-6.25 6.256 6.256 0 00-6.25 6.25v22.949c0 3.756 1.462 7.287 4.118 9.942l5.256 5.256zm18.75 14.978h-18.75v-9.374h18.75v9.374zm-25-53.124a3.128 3.128 0 013.125-3.126 3.128 3.128 0 013.125 3.126v14.976a5.307 5.307 0 00-1.563 3.773c0 1.424.555 2.765 1.563 3.772l5.145 5.146 2.21-2.21-5.145-5.145a2.193 2.193 0 01-.648-1.563c0-.59.23-1.143.647-1.562l.915-.916c.833-.836 2.29-.836 3.126 0l6.63 6.63a9.314 9.314 0 012.744 6.628v11.096h-12.5v-3.126c0-.415-.164-.812-.457-1.104L7.89 72.869a10.866 10.866 0 01-3.204-7.733V42.188zM18.75 28.125c-.863 0-1.563.7-1.563 1.563v9.375c0 .862.7 1.562 1.563 1.562h5.442a26.212 26.212 0 003.133 7.586l-3.842 3.84a1.558 1.558 0 000 2.21l6.63 6.63c.585.586 1.623.586 2.209 0l3.842-3.843a26.172 26.172 0 007.586 3.133v5.444c0 .864.7 1.563 1.563 1.563h9.374c.863 0 1.563-.699 1.563-1.563v-5.442a26.175 26.175 0 007.586-3.133l3.842 3.842c.586.586 1.624.586 2.21 0l6.63-6.63a1.561 1.561 0 000-2.209l-3.843-3.84a26.167 26.167 0 003.133-7.586h5.442c.862 0 1.563-.7 1.563-1.563V29.69c0-.862-.7-1.562-1.563-1.562h-5.442a26.211 26.211 0 00-3.133-7.586l3.842-3.843a1.561 1.561 0 000-2.209l-6.63-6.63c-.585-.586-1.623-.586-2.209 0l-3.842 3.843a26.215 26.215 0 00-7.586-3.135V3.125c0-.862-.7-1.563-1.563-1.563h-9.374c-.863 0-1.563.7-1.563 1.563v5.442a26.21 26.21 0 00-7.586 3.133l-3.842-3.842a1.561 1.561 0 00-2.21 0l-6.63 6.63a1.561 1.561 0 000 2.209l3.843 3.842a26.166 26.166 0 00-3.133 7.586H18.75zm8.24 1.855a23.183 23.183 0 013.624-8.774 1.56 1.56 0 00-.187-1.984l-3.63-3.63 4.42-4.42 3.63 3.63c.531.53 1.364.609 1.984.187a23.181 23.181 0 018.774-3.625 1.562 1.562 0 001.27-1.534V4.687h6.25V9.83c0 .75.534 1.395 1.27 1.534a23.183 23.183 0 018.774 3.625 1.563 1.563 0 001.984-.187l3.63-3.63 4.42 4.42-3.63 3.63a1.563 1.563 0 00-.187 1.984 23.183 23.183 0 013.625 8.774c.139.736.784 1.27 1.534 1.27h5.142v6.25h-5.142c-.75 0-1.395.534-1.534 1.27a23.183 23.183 0 01-3.625 8.774 1.56 1.56 0 00.187 1.984l3.63 3.628-4.42 4.42-3.63-3.63a1.558 1.558 0 00-1.984-.185 23.16 23.16 0 01-8.774 3.623 1.565 1.565 0 00-1.27 1.536v5.142h-6.25V58.92c0-.75-.534-1.395-1.27-1.534a23.183 23.183 0 01-8.774-3.623 1.56 1.56 0 00-1.984.185l-3.63 3.63-4.42-4.42 3.63-3.628c.53-.53.609-1.364.187-1.985a23.181 23.181 0 01-3.625-8.773 1.562 1.562 0 00-1.534-1.272h-5.142v-6.25h5.142c.75 0 1.395-.534 1.534-1.27z"/><path d="M50 54.688c11.2 0 20.313-9.113 20.313-20.313S61.2 14.062 50 14.062s-20.313 9.113-20.313 20.313S38.8 54.688 50 54.688zm-1.563-3.205v-12.42a1.56 1.56 0 00-.457-1.105l-2.667-2.667v-2.478h9.374v2.478l-2.667 2.667a1.56 1.56 0 00-.458 1.105v12.42c-.515.047-1.034.08-1.562.08s-1.047-.033-1.563-.08zm6.25-21.795h-9.374v-3.125h9.374v3.125zM50 17.188c9.477 0 17.188 7.71 17.188 17.187 0 7.85-5.297 14.473-12.5 16.522V39.71l2.667-2.667c.293-.294.458-.692.458-1.106V25c0-.863-.7-1.563-1.563-1.563h-12.5c-.862 0-1.563.7-1.563 1.563v10.938c0 .414.165.812.458 1.104l2.667 2.667v11.186c-7.203-2.047-12.5-8.67-12.5-16.522 0-9.475 7.711-17.185 17.188-17.185z"/></symbol><symbol id="icon-iso" viewBox="-0.001 -0.001 84.362 68.566"><path d="M83.076 27.023c-.803-2.108-2.452-3.99-4.459-5.347-5.794-3.679-14.624-3.941-20.594-.615-3.256 1.66-5.396 4.945-6.062 8.328-1.208 5.558-.896 12.171 3.386 16.337 4.993 4.377 12.26 5.344 18.722 3.546.307-.059 1.28-.304 1.951-.66l.189-.081c2.007-.834 3.921-2.192 5.35-4.031 3.298-4.822 3.524-12.047 1.517-17.477M72.555 39.504c-.228 1.054-.937 2.146-2.055 2.542-1.78.783-4.188.566-5.837-.35-1.383-.967-1.561-2.586-1.739-4.118-.135-3.02-.353-6.218.493-8.979.663-1.71 2.492-2.15 4.146-2.279 1.737 0 3.428.265 4.501 1.666.668 1.005.627 2.32.759 3.504-.047 2.495.177 5.471-.268 8.014m-52.827 2.72c-1.472-.09-3.121.039-4.546-.136l.044-15.378.09-.128 4.412-.043c.046-2.496.09-5.173-.046-7.448l-16.803-.047-2.767.048c-.044 2.32-.044 5.033 0 7.401 1.517.047 2.941 0 4.413.137v14.893l-.043.612-4.414.09a94.678 94.678 0 000 7.228h19.659l.001-7.229zm49.48 10.511c-1.87 2.675-4.233 5.259-6.813 7.269-.094.137-.361.085-.446-.041-1.118-.699-2.321-1.271-3.393-1.969 1.428-1.707 2.811-3.415 3.881-5.306H61.05c-1.108 1.627-2.27 3.334-3.74 4.775-1.963-.787-3.745-1.487-5.751-2.017l-.223-.167c.312-.885.89-1.716 1.067-2.593H51.2l-1.203 2.367c-2.627-.569-5.526-.879-8.201-1.052-.135-.393.042-.963-.135-1.315h-1.159c-.092.527.134.924-.134 1.361-2.764.127-5.438.437-8.021.968l-1.208-2.329c-.441 0-.937-.084-1.245.047l1.112 2.585-.133.128a56.26 56.26 0 00-5.884 2.062l-.177-.09c-1.251-1.358-2.455-2.841-3.437-4.331-.221-.749-1.113-.311-1.604-.399 1.066 1.93 2.497 3.636 3.921 5.391-1.203.703-2.402 1.487-3.656 2.062a32.138 32.138 0 01-7.041-7.404c-.536-.086-.889-.047-1.428 0 3.21 4.994 8.204 9.373 13.42 11.958 0 0 0-.039.048-.039.038 0 .127.081.038.127 3.524 1.709 7.271 2.935 11.235 3.463 13.687 1.794 26.75-4.029 34.324-15.509a7.047 7.047 0 00-1.424-.002m-18.585 3.942l.131-.088c1.922.438 3.746 1.052 5.441 1.882-1.428 1.617-3.256 3.022-4.948 4.204-1.024.611-2.053 1.275-3.124 1.797l-1.913-.832.131-.303c1.608-2.145 3.035-4.338 4.282-6.66m-8.785-1.315c2.543.048 5.085.31 7.444.877l.047.133c-1.246 2.363-2.81 4.646-4.501 6.788-.762.09-1.472-.213-2.229-.26l-.762-.09c-.087-2.585-.134-4.863.001-7.448m-8.6.788c2.318-.438 4.724-.788 7.219-.788l.046 7.411c-.938.212-1.963.212-2.855.437-1.828-2.152-3.342-4.475-4.633-6.886l.223-.174zm-7.181 2.368c1.743-.835 3.568-1.452 5.438-1.93l.181.046c1.289 2.41 2.896 4.686 4.5 6.964-.619.353-1.381.564-2.003.92a30.031 30.031 0 01-8.115-5.872v-.128zm5.753 7.49c-3.745-.967-7.225-2.631-10.434-4.905v-.136c1.07-.651 2.144-1.354 3.299-1.841 2.543 2.504 5.171 4.388 8.024 6.18-.222.263-.578.527-.889.702m16.537.566c-4.724 1.014-9.987 1.053-14.71-.084-.09-.218.223-.265.356-.393 4.146-2.675 10.607-2.675 14.668.213.132.264-.224.18-.314.264m4.281-1.222l-2.095.655c-.358-.175-.668-.438-.983-.702l.09-.134c2.854-1.658 5.438-3.679 7.891-6.088 1.204.481 2.364 1.142 3.437 1.883-2.499 1.981-5.398 3.289-8.34 4.386m-39.72-49.636a41.113 41.113 0 013.61-4.335c1.155-1.095 2.229-2.146 3.479-2.938 1.16.744 2.451 1.364 3.565 2.062-1.381 1.7-2.808 3.416-3.833 5.251.31.137.892.094 1.339 0 1.113-1.618 2.313-3.238 3.745-4.685 1.912.703 3.787 1.445 5.751 1.973l.173.174-1.11 2.538c.492.094.804.048 1.291 0 .4-.74.71-1.57 1.156-2.319 2.589.572 5.309.877 8.073.962.354.311.088.965.222 1.357h1.203c.131-.43-.045-.918.131-1.308 2.588-.136 5.306-.399 7.811-1.013l.217.046 1.204 2.273c.402 0 .936.094 1.248-.09l-1.117-2.534.093-.088c2.047-.526 3.967-1.314 5.928-2.101 1.386 1.445 2.675 3.153 3.838 4.812.488 0 .979.048 1.336-.09a17.72 17.72 0 00-1.918-2.758 18.66 18.66 0 00-1.964-2.359v-.227L61.5 8.526l.45-.175a32.558 32.558 0 017.039 7.312c.535 0 .982.184 1.429-.037C64.438 6.697 54.588.952 43.939.125l-.047.085-.091-.085c-1.202-.129-2.679-.18-3.97-.051-.489-.038-1.067 0-1.648.051C27.486.952 17.635 6.431 11.48 15.758c.446-.042.981.136 1.428-.042m18.503-3.849l-.178.038c-1.83-.477-3.615-1.052-5.309-1.794l.086-.263c2.452-2.321 5.037-4.25 7.89-5.736.672.263 1.34.48 2.008.791l-.131.342c-1.697 2.108-3.031 4.381-4.366 6.622m8.868 1.179c-1.245.175-2.36-.039-3.613-.136-1.198-.176-2.717-.303-3.92-.703 1.293-2.398 2.811-4.724 4.637-6.865l2.854.389c.132 2.274.042 4.904.042 7.315m1.381.047c-.088-2.329-.042-4.91 0-7.32.895-.128 1.871-.264 2.765-.393 1.738 2.187 3.436 4.429 4.596 6.827a31.597 31.597 0 01-7.361.886m14.225-3.071c-1.742.741-3.527 1.443-5.441 1.845-1.381-2.322-2.896-4.643-4.595-6.886.625-.343 1.387-.606 2.054-.955 2.903 1.444 5.708 3.501 8.068 5.859l-.086.137zm-5.71-7.49c3.745.966 7.267 2.628 10.477 4.906l-.089.175-3.073 1.706h-.227c-2.359-2.357-5.122-4.416-7.934-6.041.089-.307.537-.528.846-.746m-1.781-.44v.093c-3.881 2.796-10.165 3.06-14.264.475-.23-.175-.67-.26-.718-.567 4.728-1.09 10.297-1.178 14.982-.001M21.199 7.527c2.811-2.057 5.93-3.59 9.23-4.642.135-.137.221-.266.397-.266v.09c.356.086.625-.311.936-.051.269.227.584.4.804.618-2.762 1.705-5.483 3.724-7.98 6.172-1.204-.43-2.314-1.091-3.388-1.835l.001-.086zm19.126 35.039c-4.19 1.141-8.74.271-11.77-2.888-.355-.438-.58-.96-.938-1.396l-6.016.042c-.095 3.547-.137 7.622 0 11.128l6.684-.043.089-2.104c.761.35 1.52.787 2.276 1.18 4.636 1.93 10.604 2.368 15.197 0 3.346-1.835 5.13-5.382 4.638-9.201-.488-3.719-4.056-7.094-7.664-8.011L32.03 28.16l-.798-.396c-.357-.304-.581-.696-.494-1.182.847-1.442 2.811-1.004 4.282-.965 3.12.439 6.329 1.49 8.158 4.339 1.959 0 4.232.038 6.37-.046.091-3.591-.035-6.743-.088-10.38-2.006-.046-4.459-.046-6.462.046-.09.521.086 1.263-.137 1.791l-2.049-1.096c-4.906-2.058-11.772-2.273-16.228.925-2.899 2.099-3.788 5.87-3.03 9.198.577 3.149 3.608 5.473 6.507 6.565 3.967 1.4 8.111 2.414 12.13 3.77.398.178.932.575.846 1.056.002.389-.402.614-.712.781"/></symbol><symbol id="icon-law" viewBox="0 0 71 71"><path d="M69.484 21.438h-2.791l-4.688-9.375h3.964a1.172 1.172 0 001.172-1.172V7.375a1.172 1.172 0 00-1.082-1.168l-14.802-1.14-1.067-1.065a12.49 12.49 0 00-17.661 0l-1.067 1.066L16.66 6.207a1.172 1.172 0 00-1.082 1.168v3.516a1.172 1.172 0 001.172 1.171h3.963l-4.687 9.376h-2.792a1.172 1.172 0 00-1.171 1.171v1.172a10.547 10.547 0 0021.093 0V22.61a1.172 1.172 0 00-1.172-1.172h-2.791l-4.688-9.375h10.857l1.31 2.62v14.959c0 .182.043.36.125.523h-.001a4.089 4.089 0 010 3.64 1.164 1.164 0 00-.124.524v9.375c-.056 0-.111.004-.166.012l-6.88.983a1.17 1.17 0 00-1.442-.96l-3.23.808V41.36a4.692 4.692 0 00-4.688-4.687h-5.86a4.693 4.693 0 00-4.687 4.687v14.063c0 .823.217 1.632.63 2.344H7.375a7.04 7.04 0 00-7.031 7.03v4.688a1.172 1.172 0 001.172 1.172h53.906a1.172 1.172 0 001.172-1.172 5.866 5.866 0 00-5.86-5.859h-.117a5.877 5.877 0 00-4.57-4.57v-5.977h19.922a4.687 4.687 0 100-9.375H46.047v-9.375c0-.2-.051-.397-.15-.572a3.562 3.562 0 010-3.544c.099-.174.15-.371.15-.571V14.683l1.31-2.62h10.856l-4.687 9.374h-2.792a1.172 1.172 0 00-1.172 1.172v1.172a10.547 10.547 0 0021.094 0V22.61a1.172 1.172 0 00-1.172-1.172zM17.922 8.46l14.152-1.088c.28-.022.541-.142.739-.34l1.373-1.373a10.144 10.144 0 0114.347 0l1.373 1.373c.198.198.46.318.739.34L64.796 8.46v1.26H47.704L46.19 8.204a6.83 6.83 0 00-9.66 0l-1.514 1.515H17.922V8.46zm25.284 24.696h-3.75a6.474 6.474 0 000-2.343h3.75a5.898 5.898 0 000 2.343zm-4.19-4.687v-12.89h4.687v12.89h-4.687zm-.448-15.235l-1.252-2.503.87-.87a4.487 4.487 0 016.346 0l.87.87-1.251 2.503h-5.583zm-15.959 18.75a8.212 8.212 0 01-8.203-8.203h16.407a8.213 8.213 0 01-8.204 8.203zm-3.963-10.547l3.963-7.926 3.964 7.927h-7.927zm18.11 24.61h26.869v4.687h-26.87l-7.114-1.016v-2.655l7.114-1.016zm-8.287 7.031a1.168 1.168 0 001.156-.995l6.881.983c.055.008.11.012.166.012v5.98a5.848 5.848 0 00-2.012.821 7.01 7.01 0 00-5.02-2.113h-5.317a4.67 4.67 0 00.63-2.344v-3.187l3.232.808c.093.023.188.035.284.035zm-16.407-8.203H22.61v7.031H12.062v-7.031zm15.235 1.5v4.03l-2.344-.586v-2.857l2.344-.586zM12.062 41.36a2.346 2.346 0 012.344-2.343h5.86a2.346 2.346 0 012.343 2.343v1.172H12.062V41.36zm0 14.063V54.25H22.61v1.172a2.346 2.346 0 01-2.343 2.344h-5.86a2.346 2.346 0 01-2.344-2.344zm22.266 12.89H2.688v-3.515a4.693 4.693 0 014.687-4.688h22.266a4.692 4.692 0 014.687 4.688v3.516zm19.721 0H36.672V65.97h14.062a3.522 3.522 0 013.315 2.344zm-5.86-4.687H36.573a6.97 6.97 0 00-.57-1.821 3.51 3.51 0 011.842-.523h7.031a3.522 3.522 0 013.315 2.344zm-4.486-4.688h-4.687v-5.859h4.687v5.86zm24.61-10.546a2.346 2.346 0 01-2.344 2.343v-4.687a2.346 2.346 0 012.344 2.344zm-29.297-4.688V35.5h4.687v8.203h-4.687zm21.093-30.192l3.964 7.927h-7.927l3.963-7.927zm0 18.473a8.212 8.212 0 01-8.203-8.203h16.407a8.212 8.212 0 01-8.204 8.203z"/></symbol><symbol id="icon-location" viewBox="0 0 18 26"><path d="M9 .5A8.744 8.744 0 00.25 9.25C.25 15.813 9 25.5 9 25.5s8.75-9.688 8.75-16.25A8.744 8.744 0 009 .5zm0 11.875a3.125 3.125 0 110-6.25 3.125 3.125 0 010 6.25z"/></symbol><symbol id="icon-mail" viewBox="0 0 26 20"><path d="M23 0H3A2.497 2.497 0 00.513 2.5L.5 17.5C.5 18.875 1.625 20 3 20h20c1.375 0 2.5-1.125 2.5-2.5v-15C25.5 1.125 24.375 0 23 0zm0 5l-10 6.25L3 5V2.5l10 6.25L23 2.5V5z"/></symbol><symbol id="icon-papyrus" viewBox="0 0 50 50"><path d="M48.764 5.309c-.173.047-3.925 1.091-8.238 3.071C39.851 3.65 35.774 0 30.86 0H5.371A5.377 5.377 0 000 5.371a5.377 5.377 0 005.371 5.371h6.348V41.7c0 4.577 3.724 8.301 8.3 8.301h11.329a.977.977 0 000-1.953H24.16a5.347 5.347 0 001.23-3.418 5.347 5.347 0 00-1.23-3.418h20.469a3.422 3.422 0 013.418 3.418 3.422 3.422 0 01-3.418 3.418h-4.492a.977.977 0 000 1.953h4.492A5.377 5.377 0 0050 44.629a5.377 5.377 0 00-5.371-5.371h-4.004V24.312l.217-.212c5.836-5.836 8.991-17.113 9.123-17.59a.976.976 0 00-1.201-1.201zm-46.81.062A3.422 3.422 0 015.37 1.953c3.5 0 6.348 2.848 6.348 6.348v.488H5.37a3.422 3.422 0 01-3.418-3.418zm16.6 33.887a.977.977 0 100 1.953h1.466a3.422 3.422 0 013.418 3.418 3.422 3.422 0 01-3.418 3.418 6.355 6.355 0 01-6.348-6.348V8.301a8.285 8.285 0 00-2.96-6.348h20.147c4.147 0 7.547 3.247 7.797 7.332-3.159 1.609-5.674 3.338-7.482 5.147-3.674 3.674-5.11 8.55-4.502 12.788l-3.784 3.785a.977.977 0 001.38 1.38l3.784-3.782c3.294.483 7.254-.285 10.62-2.67v13.325H18.555zm20.907-16.54c-2.76 2.762-6.136 4.067-9.58 4.055l8.889-8.888a.977.977 0 00-1.381-1.381L28.5 25.392c-.005-2.254.588-6.112 4.055-9.58 1.764-1.763 4.297-3.466 7.531-5.06 2.89-1.424 5.715-2.447 7.456-3.02-1.114 3.37-3.914 10.82-8.081 14.987z"/><path d="M35.742 50a.977.977 0 100-1.954.977.977 0 000 1.954z"/></symbol><symbol id="icon-partnership" viewBox="0 0 75 75"><path d="M71.484 18.75H51.646A21.023 21.023 0 0037.5 24.168a21.023 21.023 0 00-14.146-5.418H3.516a1.172 1.172 0 00-1.172 1.172v21.094a1.172 1.172 0 001.172 1.172h7.792l4.663 3.73a4.488 4.488 0 006.668 5.699 4.487 4.487 0 007.487 1.946l.727-.727a4.488 4.488 0 007.476 1.899l.727-.727a4.487 4.487 0 007.476 1.899l1.172-1.172a4.457 4.457 0 001.213-2.227l2.422-.807a7.172 7.172 0 004.214-3.725l8.104-5.788h7.827a1.172 1.172 0 001.172-1.172V19.922a1.172 1.172 0 00-1.172-1.172zM4.688 21.094h5.859v18.75h-5.86v-18.75zm13.719 28.468a2.145 2.145 0 010-3.03l5.86-5.86a2.143 2.143 0 013.03 3.03l-5.86 5.86a2.145 2.145 0 01-3.03 0zm10.061 2.344a2.142 2.142 0 01-3.03-3.03l3.516-3.516 1.172-1.172a2.142 2.142 0 013.03 3.03l-4.688 4.688zm8.203 1.172a2.142 2.142 0 11-3.03-3.03l3.516-3.516a2.143 2.143 0 113.03 3.03l-3.516 3.516zm9.375 0l-1.172 1.171a2.143 2.143 0 01-3.03-3.03l1.172-1.172a2.143 2.143 0 013.03 3.03zm4.552-3.601l-1.828.61a4.492 4.492 0 00-5.673-2.777 4.486 4.486 0 00-7.142-2.833 4.48 4.48 0 00-5.748-3.024 4.486 4.486 0 00-7.598-2.438l-5.118 5.118-4.6-3.68v-19.36h10.463a18.694 18.694 0 0112.462 4.715l-5.305 5.305a4.061 4.061 0 004.688 6.504l7.265-3.633h1.622l8.196 7.286a4.838 4.838 0 01-1.684 8.207zm11.511-9.064l-5.867 4.19a7.186 7.186 0 00-2.403-5.084l-6.4-5.69a13.077 13.077 0 007.296-3.703l-1.657-1.658a10.761 10.761 0 01-7.66 3.173h-3.23a1.18 1.18 0 00-.525.123l-7.512 3.757a1.717 1.717 0 01-1.982-2.75l6.16-6.161a18.709 18.709 0 0113.317-5.516h10.463v19.319zm8.203-.57h-5.859v-18.75h5.86v18.75z"/></symbol><symbol id="icon-portfolio" viewBox="0 0 100 95"><path d="M90.436 20.833H74.953v-4.438a1.48 1.48 0 00-1.48-1.479h-1.281v-2.071C72.192 5.939 66.572.32 59.667.32H39.943c-6.906 0-12.524 5.619-12.524 12.525v2.071h-1.283a1.48 1.48 0 00-1.48 1.48v4.438h-5.645a1.48 1.48 0 100 2.957h71.425a6.418 6.418 0 016.41 6.411V43.22c0 3.057-2.177 5.702-5.161 6.288L55.98 56.123H43.629L7.939 49.51a6.423 6.423 0 01-5.176-6.29V30.202a6.417 6.417 0 016.41-6.41h2.972a1.48 1.48 0 100-2.96H9.174c-5.166 0-9.37 4.204-9.37 9.37V43.22a9.38 9.38 0 003.945 7.63v33.79c0 5.166 4.203 9.369 9.369 9.369h58.087a1.48 1.48 0 100-2.959H13.118a6.417 6.417 0 01-6.41-6.41V52.255c.223.061.448.116.678.161l34.628 6.417v15.535c0 .647.42 1.218 1.038 1.411l6.312 1.973a1.499 1.499 0 00.882 0l6.312-1.973a1.478 1.478 0 001.038-1.411V58.833l34.643-6.42c.224-.043.445-.097.663-.156V84.64a6.417 6.417 0 01-6.41 6.41h-8.367a1.48 1.48 0 100 2.959h8.367c5.165 0 9.368-4.203 9.368-9.37V50.854a9.385 9.385 0 003.945-7.633V30.202c0-5.166-4.203-9.37-9.369-9.37zm-60.06-7.988c0-5.275 4.292-9.566 9.567-9.566h19.724c5.275 0 9.566 4.29 9.566 9.566v2.071H65.88v-2.071a6.22 6.22 0 00-6.213-6.213h-3.28a1.479 1.479 0 100 2.958h3.28a3.259 3.259 0 013.254 3.255v2.071H61.64a1.48 1.48 0 00-1.48 1.48v4.438H39.45v-4.439a1.48 1.48 0 00-1.479-1.479h-1.282v-2.071a3.259 3.259 0 013.255-3.255h9.566a1.48 1.48 0 100-2.958h-9.566a6.22 6.22 0 00-6.213 6.213v2.071h-3.353v-2.071zm-2.76 7.988v-2.959h8.876v2.959h-8.877zm35.502 0v-2.959h8.876v2.959h-8.876zM44.972 59.08h9.665v5.72h-9.665v-5.72zm9.665 14.199l-4.832 1.51-4.833-1.51v-5.52h9.665v5.52z"/></symbol><symbol id="icon-register" viewBox="0 0 75 75"><path d="M4.688 14.063h9.375v2.343a2.346 2.346 0 002.343 2.344h23.438a2.346 2.346 0 002.343-2.344v-2.343h9.376v15.234h2.343V14.062a2.347 2.347 0 00-2.343-2.343H41.319a2.29 2.29 0 00-.175-.151L38.15 9.572a1.173 1.173 0 00-.65-.197h-2.344V7.617a2.35 2.35 0 00-.938-1.874l-3.905-2.93a2.36 2.36 0 00-1.406-.47h-1.564c-.506.002-1 .166-1.405.47l-3.905 2.929a2.351 2.351 0 00-.94 1.875v1.758H18.75c-.231 0-.457.069-.65.197l-2.994 1.996a2.29 2.29 0 00-.175.15H4.688a2.347 2.347 0 00-2.344 2.345v56.25a2.347 2.347 0 002.344 2.343h41.015v-2.344H4.687v-56.25zm11.718-.545l2.699-1.8h3.16a1.172 1.172 0 001.172-1.171v-2.93l3.906-2.93h1.564l3.905 2.93v2.93a1.172 1.172 0 001.172 1.172h3.161l2.699 1.799v2.888l-23.438.003v-2.891z"/><path d="M28.125 9.375a1.172 1.172 0 100-2.344 1.172 1.172 0 000 2.344zM19.171 43.63l-2.834 2.362a2.312 2.312 0 00-1.103-.289h-4.687a2.347 2.347 0 00-2.344 2.344v4.687a2.347 2.347 0 002.344 2.344h4.687a2.347 2.347 0 002.344-2.344v-4.687c0-.012-.003-.022-.003-.033l3.098-2.582-1.502-1.801zm-3.937 9.104h-4.687v-4.687h3.325L12.14 49.49l1.501 1.801 1.593-1.327v2.77zm3.937 3.787l-2.834 2.362a2.313 2.313 0 00-1.103-.29h-4.687a2.347 2.347 0 00-2.344 2.344v4.688a2.347 2.347 0 002.344 2.344h4.687a2.347 2.347 0 002.344-2.344v-4.688c0-.01-.003-.021-.003-.033l3.098-2.582-1.502-1.8zm-3.937 9.104h-4.687v-4.688h3.325l-1.732 1.444 1.501 1.8 1.593-1.327v2.771zm11.719-18.75H24.61v2.344h2.344v-2.344zm17.578 0H29.297v2.344H44.53v-2.344zm-14.062 4.688h-8.203v2.343h8.203v-2.343zm14.062 0H32.813v2.343H44.53v-2.343zm-17.578 8.203H24.61v2.343h2.344v-2.343zm18.75 0H29.297v2.343h16.406v-2.343zm-15.234 4.687h-8.203v2.344h8.203v-2.344zm15.234 0h-12.89v2.344h12.89v-2.344zm2.344-35.156v-4.688a2.346 2.346 0 00-2.344-2.343H10.547a2.347 2.347 0 00-2.344 2.343v14.063a2.347 2.347 0 002.344 2.344h28.125v-2.344H22.266V31.64h17.578v-2.344H22.266v-4.688h23.437v4.688h2.344zm-28.125 9.375h-9.375V31.64h9.375v7.03zm-9.375-9.375v-4.688h9.375v4.688h-9.375z"/><path d="M72.592 45.322a1.17 1.17 0 00-.604-.678l-5.191-2.471v-2.14a3.525 3.525 0 00-1.772-3.054l-6.039-3.45a3.497 3.497 0 00-3.05-.213l-4.205 1.682-4.352-2.072a1.157 1.157 0 00-.875-.053l-3.515 1.172a1.172 1.172 0 00-.74 1.482l1.171 3.516a1.171 1.171 0 00.608.688l4.389 2.09a3.474 3.474 0 00-.37 1.538v7.927c0 .363.085.722.247 1.048l2.097 4.193v16.13h2.343v-16.13a2.35 2.35 0 00-.247-1.048l-2.096-4.193v-7.927a1.172 1.172 0 012.343 0v4.001l3.86 3.86 1.656-1.658-3.172-3.172v-1.397l9.375 4.464v1.165a5.79 5.79 0 01-.975 3.22 8.13 8.13 0 00-1.369 4.52v14.294h2.344V58.363a5.79 5.79 0 01.975-3.22 8.129 8.129 0 001.369-4.521v-.05l1.84.877a1.173 1.173 0 001.552-.534l2.344-4.688a1.168 1.168 0 00.06-.905zm-15.786-9.83a1.173 1.173 0 011.018.072l6.039 3.45a1.176 1.176 0 01.59 1.019v1.023l-9.84-4.686 2.193-.877zm11.8 13.347l-13.705-6.527a3.48 3.48 0 00-4.643-2.211l-4.772-2.273-.645-1.93 1.956-.653 23.105 11.003-1.296 2.59z"/></symbol><symbol id="icon-search" viewBox="0 0 20 20"><path d="M8.333 15c1.48 0 2.916-.495 4.081-1.407l3.664 3.664 1.178-1.179-3.664-3.663A6.627 6.627 0 0015 8.333a6.675 6.675 0 00-6.667-6.666 6.674 6.674 0 00-6.666 6.666A6.674 6.674 0 008.333 15zm0-11.667c2.758 0 5 2.243 5 5 0 2.758-2.242 5-5 5-2.757 0-5-2.242-5-5 0-2.757 2.243-5 5-5z" fill="#fff"/></symbol><symbol id="icon-shopping" viewBox="0 0 100 100"><g clip-path="url(#clip0)"><path d="M44.994 65.307c.762-.764.762-2 0-2.764-.764-.762-2-.762-2.764 0-.762.763-.762 2 0 2.764.764.761 2 .761 2.764 0zm.711-45.97v3.906c0 6.474 5.244 11.719 11.718 11.719 6.462 0 11.72-5.257 11.72-11.72v-3.905a1.953 1.953 0 100-3.907h-3.906a1.953 1.953 0 100 3.907v3.906c0 4.308-3.505 7.812-7.814 7.812a7.812 7.812 0 01-7.812-7.812v-3.906a1.953 1.953 0 100-3.907h-3.906a1.953 1.953 0 100 3.907z"/><path d="M22.699 95.887c.381.38.88.57 1.38.57.5 0 1-.19 1.381-.57l5.997-5.998a9.042 9.042 0 002.623-7.329l2.151-2.077a9.062 9.062 0 016.317-2.551h25.716c4.607 0 8.96-1.77 12.26-4.982a1.79 1.79 0 00.138-.15l17.497-21.01c2.78-3.29 2.364-8.23-.928-11.013-3.272-2.757-8.175-2.36-10.963.874l-1.89 1.955V5.469a1.953 1.953 0 00-1.953-1.953H32.227a1.953 1.953 0 00-1.953 1.953v43.76C22.71 50.816 16.711 55.51 13.48 62.375a9.02 9.02 0 00-6.877 2.651L.575 71.024a1.955 1.955 0 00-.002 2.767l22.126 22.096zM80.472 7.422v40.223l-5.653 5.844a7.848 7.848 0 00-6.067-2.901H46.107c-.125 0-.261-.03-.398-.084a25.24 25.24 0 00-9.575-1.87c-.654 0-1.305.024-1.953.067V7.42h46.29zM32.507 52.798c3.952-.572 7.903-.236 11.735 1.326.609.245 1.237.37 1.865.37h22.645c2.118 0 3.907 1.728 3.907 3.907a3.91 3.91 0 01-3.907 3.906H51.76a1.953 1.953 0 000 3.906h16.993c4.309 0 7.813-3.505 7.813-7.812 0-.345-.025-.688-.07-1.026.408-.417 12.213-12.627 12.622-13.05.03-.032.06-.064.087-.097a3.92 3.92 0 015.507-.465 3.914 3.914 0 01.455 5.516L77.728 70.22a13.591 13.591 0 01-9.464 3.806H42.548c-3.383 0-6.59 1.294-9.029 3.646l-.861.831a9.1 9.1 0 00-1.2-1.477L19.462 65.029a9.122 9.122 0 00-2.155-1.594c2.984-5.885 8.314-9.636 15.2-10.637zM9.363 67.79a5.18 5.18 0 017.336 0l11.998 12a5.181 5.181 0 010 7.336l-4.62 4.618L4.72 72.411l4.643-4.62z"/></g></symbol></svg>