<?xml version="1.0" standalone="no"?>
<!DOCTYPE svg PUBLIC "-//W3C//DTD SVG 20010904//EN"
 "http://www.w3.org/TR/2001/REC-SVG-20010904/DTD/svg10.dtd">
<svg version="1.0" xmlns="http://www.w3.org/2000/svg"
 width="1728.000000pt" height="868.000000pt" viewBox="0 0 1728.000000 868.000000"
 preserveAspectRatio="xMidYMid meet">
<metadata>
Created by potrace 1.15, written by Peter Selinger 2001-2017
</metadata>
<g transform="translate(0.000000,868.000000) scale(0.100000,-0.100000)"
fill="#000000" stroke="none">
<path d="M0 4339 l0 -4341 32 6 c18 4 2654 694 5858 1534 5655 1483 5824 1528
5831 1552 l6 25 4 -25 c3 -14 8 36 12 110 14 263 73 480 204 748 30 62 53 115
50 118 -5 6 -110 -196 -137 -266 -78 -200 -112 -342 -130 -550 -7 -69 -13
-126 -14 -127 -1 -2 -8 37 -14 85 -49 366 -39 688 29 954 38 153 115 331 207
483 98 161 293 390 418 491 27 21 55 45 63 52 22 21 210 145 274 181 89 49
263 117 399 157 166 47 321 71 526 80 l172 7 33 54 c61 103 175 249 263 337
209 209 530 375 864 447 120 26 420 37 578 20 236 -25 478 -106 682 -229 189
-115 381 -303 520 -510 l55 -82 11 53 c5 28 13 60 17 70 4 9 10 25 13 35 8 23
25 170 24 207 0 17 94 617 210 1334 115 717 210 1309 210 1317 0 12 -1266 14
-8635 14 l-8635 0 0 -4341z"/>
<path d="M17095 6791 c-3 -2 -14 -4 -25 -5 -33 -2 -27 -17 23 -59 42 -36 47
-38 62 -23 21 21 31 20 55 -4 13 -13 20 -33 20 -58 0 -28 7 -45 25 -62 l25
-23 0 111 c0 62 -3 112 -7 113 -71 7 -175 13 -178 10z"/>
<path d="M15330 5854 c-56 -9 -40 -10 110 -6 175 4 274 -4 425 -32 76 -14 101
-22 259 -80 38 -14 71 -26 72 -26 2 0 4 -5 4 -10 0 -6 -14 -4 -35 4 -26 11
-35 12 -35 3 0 -7 -6 -4 -14 5 -7 10 -15 15 -18 12 -3 -3 -38 7 -79 21 -40 14
-82 25 -94 25 -12 0 -25 3 -29 7 -4 4 -42 14 -85 23 -84 16 -401 21 -520 7
-118 -13 -322 -70 -396 -110 -16 -8 -73 -36 -125 -62 -52 -25 -97 -49 -100
-53 -3 -4 -30 -20 -60 -36 -30 -16 -70 -41 -89 -55 -19 -14 -37 -26 -40 -26
-3 0 -7 -8 -8 -17 -2 -10 -1 -18 2 -18 3 0 40 27 83 59 129 99 363 207 542
251 197 49 245 56 421 54 96 -1 206 -7 244 -13 130 -22 395 -107 395 -127 0
-3 -7 -4 -15 0 -17 6 -21 -9 -5 -17 6 -3 5 -4 -2 -2 -27 8 -126 39 -196 61
-40 13 -85 24 -100 24 -43 -1 -11 -14 123 -51 66 -19 134 -43 151 -55 18 -11
46 -27 64 -34 27 -11 29 -15 15 -23 -12 -7 -25 -4 -44 11 -25 18 -110 37 -93
21 4 -4 48 -28 98 -53 51 -26 95 -53 98 -62 3 -8 2 -12 -3 -9 -5 3 -13 0 -17
-6 -5 -9 -10 -8 -18 3 -16 21 -142 81 -158 75 -8 -3 -2 -9 15 -16 40 -16 236
-139 277 -173 13 -11 11 -13 -9 -16 -15 -2 -28 3 -33 12 -5 9 -16 16 -23 16
-8 0 -15 5 -15 10 0 6 -7 10 -16 10 -11 0 -14 5 -9 18 5 14 4 15 -6 5 -18 -18
-34 -16 -19 2 10 13 9 15 -8 15 -11 0 -27 6 -34 13 -23 21 -57 37 -77 37 -11
0 -24 7 -29 16 -5 10 -18 14 -33 12 -19 -3 -6 -12 64 -48 56 -28 86 -49 83
-57 -3 -7 -2 -12 3 -10 9 2 122 -70 165 -106 15 -14 24 -27 18 -31 -8 -5 -46
20 -99 64 -7 5 -17 10 -23 10 -5 0 -10 4 -10 8 0 7 -43 33 -60 37 -3 0 -18 9
-34 20 -16 11 -41 21 -55 23 -14 1 -31 9 -37 17 -5 7 -23 17 -40 20 -16 4 -38
10 -49 15 -42 17 -105 33 -110 28 -3 -3 23 -15 57 -27 106 -37 182 -71 208
-92 18 -14 19 -18 5 -11 -111 53 -157 72 -173 72 -10 0 -23 5 -30 12 -9 9 -12
9 -12 -1 0 -8 -9 -6 -27 7 -16 10 -41 23 -58 27 l-30 8 25 7 c30 9 21 13 -64
29 -60 11 -93 7 -40 -4 69 -16 75 -23 14 -17 -36 4 -141 7 -235 7 -153 -1
-181 -4 -280 -29 -125 -32 -265 -89 -377 -153 -75 -43 -112 -73 -89 -73 17 0
138 -104 225 -194 116 -120 214 -245 309 -396 74 -119 224 -400 213 -400 -2 0
-17 21 -34 48 -68 111 -237 289 -366 388 -104 79 -382 242 -393 230 -5 -5 34
-28 157 -95 100 -54 107 -59 235 -158 149 -116 299 -275 374 -396 12 -20 27
-34 33 -31 7 4 8 2 4 -4 -4 -6 9 -34 28 -62 19 -28 38 -59 41 -70 9 -27 21
-26 122 15 199 80 389 203 539 350 90 87 93 92 105 152 6 35 15 61 19 58 10
-6 15 66 14 234 -1 108 2 141 10 130 6 -9 28 -36 48 -61 21 -24 51 -71 67
-104 l30 -58 66 136 c36 75 67 145 68 157 1 11 4 21 7 21 4 0 11 15 17 34 9
28 8 37 -5 50 -15 15 -15 16 1 16 21 0 32 21 48 93 10 46 10 63 1 78 -16 25
-15 34 2 20 11 -9 15 -7 19 11 5 17 -2 32 -26 58 l-32 35 33 -29 c23 -22 32
-25 32 -14 0 20 -125 133 -210 191 -95 64 -109 70 -125 57 -15 -12 -55 2 -55
20 0 6 -3 9 -7 8 -5 -1 -38 12 -75 29 -36 17 -86 34 -110 38 -52 9 -42 -5 22
-29 59 -23 247 -124 256 -137 3 -6 29 -26 58 -45 28 -18 76 -56 106 -85 33
-30 42 -42 23 -29 -18 11 -35 25 -38 31 -4 5 -10 7 -15 4 -5 -3 -15 3 -22 13
-7 9 -26 26 -43 36 -16 11 -38 28 -49 38 -11 10 -23 18 -28 18 -4 0 -16 8 -26
18 -19 18 -200 112 -217 112 -5 1 -28 9 -50 20 -22 11 -51 19 -65 19 -21 -1
-20 -3 10 -13 19 -6 60 -24 90 -40 30 -16 72 -38 93 -48 22 -11 36 -22 33 -25
-3 -3 -12 0 -20 6 -8 7 -20 10 -26 6 -5 -3 -10 -1 -10 4 0 6 -3 10 -7 9 -13
-3 -53 13 -53 21 0 4 -6 8 -12 8 -7 1 -38 11 -68 23 -30 12 -75 26 -100 31
-25 4 -70 16 -100 25 -30 9 -72 16 -92 15 -23 -1 -38 3 -38 10 0 7 -9 9 -25 5
-14 -4 -34 -2 -45 4 -15 8 -20 8 -20 -2 0 -8 -3 -9 -8 -3 -10 14 -280 13 -362
-1z"/>
<path d="M16940 5711 c0 -5 -9 -13 -21 -16 -16 -5 -18 -9 -8 -21 7 -9 8 -14 3
-13 -28 5 -46 -4 -64 -33 -11 -18 -16 -35 -12 -38 4 -3 8 -14 7 -25 0 -25 52
-51 122 -59 l52 -7 -19 64 c-10 35 -24 75 -31 88 -7 13 -12 25 -11 27 7 9 0
42 -8 42 -5 0 -10 -4 -10 -9z"/>
<path d="M13880 4897 c-5 -4 -242 -20 -287 -20 -13 1 -23 -3 -23 -9 0 -5 32
-6 83 -2 117 10 374 7 425 -4 26 -6 44 -6 48 0 4 5 10 5 18 -1 7 -6 50 -17 97
-25 46 -9 102 -21 124 -27 43 -12 200 -70 250 -93 17 -7 46 -20 65 -28 19 -9
66 -39 103 -67 37 -28 70 -51 74 -51 4 0 132 -95 178 -132 40 -33 65 -59 65
-68 0 -5 5 -10 12 -10 6 0 8 -3 4 -7 -3 -4 -25 12 -47 36 -23 23 -43 40 -46
37 -6 -6 -56 26 -88 56 -36 33 -232 156 -282 177 -18 7 -33 18 -33 23 0 5 -4
7 -10 3 -5 -3 -17 -2 -27 3 -37 19 -94 42 -104 42 -6 0 -25 6 -42 14 -29 13
-70 25 -90 25 -4 1 -22 7 -41 15 -18 7 -57 17 -87 21 -30 4 -59 11 -65 16 -6
5 -54 9 -105 8 -52 -1 -143 2 -204 6 -67 4 -135 3 -175 -4 -139 -23 -187 -31
-235 -41 -27 -6 -63 -13 -78 -15 -15 -3 -36 -10 -45 -15 -9 -4 -54 -21 -99
-36 -46 -15 -83 -31 -83 -35 0 -3 -26 -17 -57 -29 -136 -54 -355 -187 -400
-243 -16 -20 -71 -61 -83 -62 -10 -1 -70 -40 -70 -45 0 -4 -24 -31 -52 -62
-29 -31 -66 -72 -83 -93 -16 -20 -37 -45 -45 -55 -8 -10 -33 -44 -55 -74 -22
-31 -41 -56 -43 -56 -2 0 0 5 4 12 5 7 3 8 -5 4 -7 -5 -10 -14 -7 -22 3 -7 -1
-17 -9 -21 -17 -10 -65 -80 -65 -96 0 -7 -7 -22 -15 -33 -8 -12 -12 -24 -9
-27 3 -3 2 -13 -4 -22 -8 -16 -10 -16 -15 -1 -4 9 -1 16 5 16 6 0 9 3 5 6 -3
4 0 18 7 33 7 14 12 31 9 37 -2 5 8 20 21 33 14 13 23 28 20 35 -2 6 5 21 16
33 11 12 20 24 20 27 0 19 119 175 189 248 84 89 101 117 44 75 -36 -26 -123
-121 -123 -133 0 -5 -16 -20 -34 -34 -19 -14 -32 -28 -30 -32 2 -3 0 -8 -5
-10 -12 -5 -105 -147 -120 -185 -7 -17 -19 -34 -26 -37 -8 -3 -12 -14 -10 -25
2 -13 -1 -18 -9 -15 -13 5 -30 -21 -22 -34 2 -4 -5 -16 -15 -26 -11 -11 -19
-15 -19 -10 0 13 149 307 159 314 4 3 34 39 66 80 85 109 258 279 340 336 17
11 50 35 75 53 78 55 112 76 205 126 93 50 134 75 123 75 -6 0 -138 -67 -213
-109 -16 -9 -54 -34 -84 -56 -30 -22 -72 -53 -94 -68 -73 -52 -201 -164 -244
-213 -92 -107 -210 -256 -244 -311 -60 -97 -138 -255 -146 -298 -2 -10 -7 -22
-11 -25 -4 -3 -7 -9 -7 -15 -1 -10 -12 -51 -34 -125 -6 -19 -9 -24 -6 -10 4
24 3 24 -11 5 -13 -18 -14 -17 -8 15 16 84 132 371 155 386 4 2 6 11 2 19 -3
8 0 15 6 15 6 0 8 7 4 17 -4 10 -2 14 5 9 11 -6 38 31 34 47 -1 4 2 7 8 7 5 0
14 9 20 20 17 32 -7 24 -26 -9 -10 -17 -21 -28 -25 -25 -4 2 -5 -6 -2 -18 3
-16 2 -19 -4 -10 -10 13 -16 4 -42 -60 -6 -16 -15 -28 -21 -28 -5 0 -10 -6
-10 -12 0 -7 -11 -35 -24 -63 -14 -27 -27 -62 -31 -77 -4 -20 -10 -26 -23 -22
-14 5 -15 4 -2 -5 13 -10 13 -13 -2 -22 -10 -5 -18 -15 -18 -20 0 -6 6 -7 13
-3 8 6 8 3 -1 -9 -8 -9 -11 -21 -7 -27 3 -5 2 -10 -4 -10 -16 0 -51 -84 -45
-111 4 -21 3 -21 -7 3 -9 22 -4 45 29 140 21 62 42 121 46 131 5 10 4 17 -2
17 -10 0 -89 -212 -116 -310 -30 -112 -54 -367 -38 -409 6 -14 13 -16 40 -9
31 8 32 11 33 61 0 29 4 61 9 72 6 13 8 -4 5 -51 l-5 -70 80 20 c44 12 76 22
70 24 -16 6 -12 22 5 22 8 0 15 5 15 10 0 6 5 10 10 10 6 0 10 -9 10 -19 0
-18 2 -18 59 -3 41 11 61 22 64 34 3 10 1 18 -4 18 -10 0 -12 53 -3 99 8 40
24 40 24 1 0 -16 -5 -30 -11 -30 -8 0 -8 -4 -1 -12 5 -7 9 -30 7 -50 -1 -23 3
-38 9 -38 24 0 36 18 34 47 -2 29 19 70 30 59 2 -3 -3 -12 -12 -22 -12 -12
-14 -20 -6 -29 6 -7 8 -19 4 -28 -4 -12 -1 -14 15 -10 22 6 33 33 33 80 0 16
2 39 5 52 4 22 5 23 20 8 14 -14 15 -20 4 -41 -8 -14 -11 -34 -8 -45 3 -12 1
-19 -4 -15 -5 3 -6 -1 -3 -9 3 -9 13 -13 24 -10 14 4 22 23 33 81 l15 77 -6
-74 -5 -74 29 7 c34 9 2244 587 2357 618 l77 20 -5 52 c-7 55 -8 55 42 -8 l23
-28 68 17 c38 10 69 23 69 30 0 7 -6 12 -12 11 -11 -1 -105 105 -105 119 0 10
-23 30 -48 44 -16 9 -21 18 -17 32 5 14 3 17 -10 13 -10 -4 -28 4 -48 23 -36
34 -170 123 -184 123 -6 0 -18 9 -28 20 -10 11 -42 27 -71 36 -29 8 -55 22
-58 30 -4 10 -13 14 -22 10 -8 -3 -12 -2 -9 4 4 6 -7 10 -24 10 -16 0 -33 5
-36 10 -4 6 -10 8 -15 5 -5 -3 -23 1 -39 10 -17 8 -39 15 -49 15 -11 0 -25 7
-32 15 -7 9 -20 13 -29 10 -9 -2 -41 2 -71 10 -64 17 -70 18 -70 6 0 -4 19
-13 43 -19 37 -9 34 -10 -28 -4 -143 13 -394 5 -490 -17 -134 -31 -272 -78
-411 -141 -131 -59 -389 -249 -461 -338 -21 -26 -40 -49 -43 -52 -3 -3 -5 -12
-5 -20 0 -8 -6 -14 -14 -12 -9 2 -11 -3 -7 -13 3 -9 2 -14 -3 -10 -10 6 -81
-90 -130 -177 -18 -32 -34 -58 -37 -58 -10 0 58 122 103 185 26 37 57 80 68
95 11 16 49 60 84 99 34 39 59 71 55 71 -9 0 -114 -108 -114 -118 0 -4 -23
-31 -50 -61 -28 -29 -50 -55 -50 -57 0 -2 -14 -17 -31 -34 -19 -18 -29 -35
-26 -44 4 -9 1 -21 -6 -28 -35 -36 -57 -73 -57 -95 0 -13 -7 -26 -15 -29 -8
-4 -15 -15 -15 -25 0 -10 -4 -19 -9 -19 -5 0 -12 -19 -16 -42 -4 -23 -11 -49
-16 -58 -5 -8 -13 -34 -19 -57 -10 -41 -25 -61 -38 -49 -9 9 16 101 49 183 16
39 29 78 29 86 0 15 56 126 87 174 9 13 13 26 11 29 -11 11 -37 -9 -43 -34 -4
-15 -11 -29 -15 -32 -19 -12 -77 -139 -66 -144 8 -3 8 -7 0 -13 -6 -4 -19 -33
-29 -63 -11 -30 -23 -59 -27 -64 -4 -6 -8 -21 -8 -33 0 -29 -27 -83 -40 -83
-12 0 -13 16 -1 58 7 24 7 31 -2 25 -9 -5 -9 -3 0 8 6 8 12 19 13 24 1 6 10
29 21 52 10 23 19 47 19 53 0 5 4 18 10 28 14 24 70 151 70 158 0 3 8 18 18
32 10 15 22 35 25 45 6 16 5 16 -18 1 -14 -9 -25 -21 -25 -28 0 -6 -7 -24 -16
-41 -38 -69 -48 -91 -49 -100 0 -5 -3 -10 -6 -10 -10 0 -39 -27 -39 -37 0 -5
4 -7 9 -3 5 3 9 -8 9 -24 -1 -17 -5 -28 -9 -25 -4 2 -10 0 -14 -6 -4 -6 -11
-8 -16 -5 -5 4 -9 1 -9 -4 0 -6 5 -11 10 -11 17 0 11 -26 -11 -51 l-20 -24 11
25 c10 23 10 23 -4 7 -11 -14 -12 -25 -4 -47 7 -20 6 -34 -2 -47 -10 -16 -11
-16 -6 0 9 29 -4 19 -19 -15 -21 -47 -18 -16 6 85 12 49 28 95 36 103 8 8 12
14 8 14 -3 0 0 10 7 23 7 12 11 25 10 30 -2 7 25 61 99 192 18 33 45 76 61 95
15 19 28 39 28 44 0 11 -61 -52 -76 -80 -6 -10 -21 -24 -33 -30 -12 -6 -22
-14 -22 -18 2 -19 0 -27 -6 -23 -5 3 -9 -6 -10 -20 0 -14 -8 -32 -17 -41 -14
-14 -16 -14 -22 1 -4 10 6 36 25 65 17 27 31 52 31 56 0 9 62 93 139 186 33
41 56 77 51 78 -12 4 -56 -42 -101 -106 -17 -23 -40 -53 -52 -66 -12 -13 -30
-35 -40 -50 -10 -15 -23 -23 -29 -20 -6 4 -9 3 -5 -2 3 -5 -1 -20 -9 -34 -13
-22 -14 -22 -9 -3 3 12 1 24 -4 27 -6 4 -8 13 -5 21 4 8 11 12 17 8 5 -3 7 -2
4 4 -6 10 20 50 110 166 74 96 150 172 248 248 52 40 95 77 95 81 0 5 4 8 10
8 5 0 50 27 100 59 97 64 270 152 360 183 191 66 405 108 548 108 75 0 102 3
102 13 0 9 2 9 8 0 4 -7 47 -14 107 -17 102 -5 212 -19 275 -36 189 -50 348
-109 358 -132 2 -5 10 -8 17 -8 8 0 29 -9 47 -21 18 -11 67 -42 108 -67 119
-74 190 -133 303 -253 94 -100 107 -110 125 -100 26 14 45 14 37 1 -4 -6 -11
-8 -16 -5 -5 4 -9 2 -9 -2 0 -5 -6 -18 -14 -28 -12 -16 -15 -17 -28 -4 -8 8
-17 22 -21 32 -4 10 -11 15 -17 12 -14 -9 -55 25 -97 81 -35 46 -35 46 -7 28
l29 -18 -27 30 c-15 16 -37 30 -48 31 -12 1 -30 12 -41 25 l-20 23 12 -25 c9
-20 3 -17 -32 16 -80 75 -154 130 -197 149 -24 10 -50 28 -58 39 -8 11 -14 17
-14 13 0 -4 -20 4 -43 18 -24 14 -55 25 -70 25 -14 0 -29 5 -32 10 -4 6 -10 8
-15 5 -4 -3 -13 2 -20 10 -7 8 -23 15 -36 15 -13 0 -47 9 -76 21 -29 11 -53
20 -53 19 0 -1 -7 1 -15 4 -32 10 -70 13 -70 5 0 -5 26 -16 58 -25 31 -9 92
-26 135 -39 42 -13 77 -22 77 -19 0 2 23 -10 50 -26 28 -17 54 -30 59 -30 8 0
162 -98 202 -129 15 -12 34 -24 43 -27 9 -3 16 -12 16 -20 0 -8 9 -14 20 -14
14 0 18 -5 14 -17 -4 -13 -3 -14 3 -5 7 9 16 5 37 -17 36 -38 16 -51 -25 -17
-17 14 -34 26 -38 26 -4 0 -23 15 -42 34 -34 33 -119 91 -119 81 0 -3 -13 1
-30 10 -16 9 -30 19 -30 24 0 4 -18 13 -40 20 -22 6 -40 16 -40 20 0 13 -56
33 -77 29 -11 -3 17 -22 81 -52 206 -102 413 -270 517 -423 27 -40 48 -73 47
-74 -26 -7 -37 -4 -41 10 -2 9 -5 19 -6 23 -1 4 -16 22 -34 40 -18 18 -45 48
-60 67 -22 27 -31 31 -40 21 -9 -10 -9 -14 1 -17 6 -3 10 -9 6 -14 -3 -5 -1
-9 4 -9 12 0 45 -50 45 -67 0 -7 4 -10 8 -7 11 6 30 -31 21 -41 -4 -5 -2 -5 4
-2 7 4 24 -11 39 -33 20 -28 35 -40 53 -40 19 0 23 4 19 20 -6 23 8 27 17 5 3
-8 10 -15 16 -15 12 0 14 31 3 46 -5 5 2 -2 14 -16 13 -14 23 -20 23 -13 0 6
9 9 20 6 17 -4 19 -2 13 13 -6 17 -5 18 12 4 17 -14 18 -13 12 10 -5 22 -5 23
7 8 14 -19 51 -24 61 -8 3 5 1 20 -5 32 -9 19 -8 18 10 -4 13 -17 27 -24 39
-21 19 5 19 6 3 41 -9 21 -23 41 -29 45 -7 4 -13 13 -13 18 0 19 -74 121 -130
179 -19 20 -50 56 -69 78 -19 23 -38 42 -43 42 -4 0 -31 23 -59 51 -30 29 -57
48 -65 45 -8 -3 -13 0 -11 7 1 7 -3 11 -10 10 -6 -1 -17 4 -23 12 -7 8 -20 15
-29 16 -11 0 -12 2 -3 6 10 4 9 8 -5 19 -21 16 -37 18 -28 4 11 -17 -5 -11
-50 20 -80 55 -217 130 -226 124 -5 -3 -9 0 -9 6 0 6 -4 8 -10 5 -5 -3 -10 -1
-10 5 0 7 -7 9 -16 6 -8 -3 -13 -2 -10 3 3 4 -23 16 -57 25 -34 9 -82 23 -107
31 -25 8 -60 17 -79 20 -19 3 -39 9 -44 12 -6 3 -32 5 -59 4 -28 -1 -47 3 -44
8 3 5 -1 11 -9 15 -8 3 -15 2 -15 -3 0 -4 -16 -7 -35 -7 -19 1 -35 4 -35 8 0
3 -22 5 -50 4 -27 -2 -50 1 -50 5 0 5 -5 9 -11 9 -5 0 -7 -4 -4 -10 4 -6 -6
-10 -24 -10 -16 0 -31 5 -33 11 -2 5 -6 8 -8 6z"/>
<path d="M14610 4791 c0 -4 43 -29 95 -55 107 -52 298 -185 392 -273 50 -47
187 -201 221 -248 15 -22 61 -92 86 -132 30 -50 40 -53 43 -16 1 18 -2 22 -7
12 -7 -11 -10 -9 -16 6 -14 41 -177 274 -195 280 -10 4 -19 13 -19 21 0 8 -9
14 -20 14 -11 0 -20 6 -20 14 0 24 -161 157 -302 251 -43 29 -198 112 -233
125 -14 5 -25 6 -25 1z"/>
<path d="M14751 4776 c2 -2 30 -18 62 -35 32 -18 66 -39 75 -46 9 -8 62 -48
117 -89 109 -80 200 -170 190 -186 -3 -5 0 -7 8 -4 9 3 27 -9 46 -33 108 -134
130 -163 154 -204 14 -26 23 -49 20 -53 -3 -3 -1 -6 6 -6 7 0 19 -16 27 -36
12 -29 18 -34 37 -28 12 4 24 11 25 15 2 5 8 7 13 4 12 -8 1 21 -30 75 -27 49
-180 260 -187 260 -7 0 5 -21 26 -45 48 -55 161 -236 154 -246 -5 -8 -3 -9 6
-4 10 6 12 4 7 -9 -4 -10 -3 -15 3 -11 6 3 10 1 10 -4 0 -20 -17 -11 -35 17
-10 15 -24 31 -32 35 -7 4 -13 16 -13 27 0 10 -5 20 -10 22 -6 2 -12 13 -13
26 0 12 -7 22 -14 22 -7 0 -14 5 -14 10 -3 20 -4 25 -13 38 -4 7 -15 11 -24 7
-9 -3 -13 -3 -10 0 4 4 -1 19 -10 34 -27 44 -62 84 -67 79 -3 -3 -38 26 -78
64 -126 121 -385 308 -427 308 -7 0 -11 -2 -9 -4z"/>
<path d="M14645 4339 c17 -14 55 -41 85 -60 30 -20 74 -55 96 -78 23 -22 47
-41 53 -41 6 0 11 -6 11 -13 0 -8 27 -41 59 -75 33 -33 67 -77 76 -96 17 -35
38 -46 50 -26 3 6 1 10 -5 10 -7 0 -10 6 -7 14 3 9 -4 21 -19 30 -13 9 -24 23
-24 32 0 8 -6 17 -13 20 -8 3 -24 19 -37 36 -12 17 -17 27 -10 23 9 -5 11 -4
6 3 -4 7 -14 12 -22 12 -8 0 -14 7 -14 15 0 8 -7 15 -15 15 -24 0 -18 20 9 30
26 9 44 30 27 30 -6 0 -10 5 -8 12 1 6 -11 16 -28 21 -16 5 -37 13 -46 18 -23
11 -14 -24 12 -47 29 -26 23 -33 -16 -21 -19 6 -35 14 -35 19 0 4 -7 8 -15 8
-8 0 -15 7 -15 15 0 8 -5 15 -10 15 -6 0 -22 11 -36 25 -14 14 -31 25 -39 25
-8 0 -15 5 -15 10 0 6 -6 10 -14 10 -8 0 -16 4 -18 9 -1 4 -14 12 -28 16 -24
8 -23 7 5 -16z"/>
</g>
</svg>
